{"glyphs":{"0":{"ha":951,"x_min":61,"x_max":890,"o":"m 475 983 q 651 943 574 983 q 781 835 728 903 q 863 676 835 767 q 890 488 890 586 q 863 299 890 389 q 781 142 835 210 q 651 33 728 74 q 475 -7 574 -7 q 301 33 378 -7 q 170 142 224 74 q 89 299 117 210 q 61 488 61 389 q 89 676 61 586 q 170 835 117 767 q 301 943 224 903 q 475 983 378 983 m 143 599 q 181 351 143 457 q 276 176 218 246 q 407 70 335 106 q 550 35 479 35 q 649 54 601 35 q 731 112 696 74 q 788 208 767 150 q 808 344 808 267 q 770 603 808 490 q 673 791 732 715 q 541 906 614 867 q 397 944 468 944 q 300 924 346 944 q 219 860 254 903 q 164 751 185 817 q 143 599 143 686 z "},"1":{"ha":260,"x_min":82,"x_max":176,"o":"m 176 988 l 175 0 l 82 0 l 82 914 l 176 988 z "},"2":{"ha":704,"x_min":39,"x_max":644,"o":"m 644 711 q 617 586 644 647 q 543 468 589 525 q 441 359 497 411 q 326 258 385 307 q 215 167 268 210 q 125 86 163 124 l 629 86 l 629 1 l 46 0 l 46 8 q 100 81 58 39 q 197 177 142 124 q 315 293 253 231 q 428 426 376 356 q 515 572 481 496 q 549 729 549 649 q 531 822 549 782 q 481 891 513 863 q 410 934 450 919 q 325 949 369 949 q 247 937 286 949 q 170 901 207 925 q 102 839 133 876 q 49 750 71 801 l 39 754 q 101 856 63 813 q 185 930 139 900 q 281 975 231 960 q 381 990 331 990 q 481 973 433 990 q 565 922 528 956 q 623 835 601 888 q 644 711 644 782 z "},"3":{"ha":701,"x_min":31,"x_max":647,"o":"m 294 590 q 460 564 393 590 q 569 497 528 538 q 629 406 611 456 q 647 308 647 356 q 617 166 647 228 q 540 62 588 104 q 430 -2 492 19 q 306 -24 368 -24 q 144 17 219 -24 q 31 140 69 57 l 38 147 q 138 43 72 78 q 275 8 203 8 q 374 26 325 8 q 462 81 424 44 q 524 174 500 118 q 547 306 547 231 q 525 429 547 378 q 465 514 503 481 q 379 563 428 547 q 278 579 331 579 l 278 590 l 533 893 l 90 893 l 90 969 l 596 969 l 596 944 l 294 590 z "},"4":{"ha":725,"x_min":29,"x_max":683,"o":"m 683 182 l 569 182 l 569 0 l 485 0 l 485 182 l 29 182 l 392 969 l 408 969 l 88 282 l 75 258 l 485 258 l 485 678 l 569 761 l 569 258 l 683 258 l 683 182 z "},"5":{"ha":761,"x_min":53,"x_max":700,"o":"m 111 514 q 156 592 128 558 q 222 649 185 626 q 303 684 260 672 q 390 696 346 696 q 504 675 449 696 q 603 611 560 654 q 674 501 647 568 q 700 343 700 435 q 669 200 700 264 q 590 91 639 136 q 476 22 540 46 q 346 -3 413 -3 q 184 38 263 -3 q 53 171 106 79 l 61 175 q 174 65 104 103 q 319 28 244 28 q 424 47 374 28 q 513 106 474 67 q 576 203 553 144 q 600 343 600 263 q 577 479 600 421 q 517 576 554 538 q 431 635 479 615 q 335 654 383 654 q 260 642 297 654 q 193 607 224 631 q 140 548 163 583 q 108 465 118 513 l 99 467 l 94 467 l 153 969 l 646 969 l 646 894 l 156 893 l 111 514 z "},"6":{"ha":794,"x_min":54,"x_max":746,"o":"m 740 386 q 722 221 746 293 q 652 98 697 149 q 547 19 607 47 q 419 -14 486 -10 q 255 18 325 -19 q 139 122 185 56 q 74 276 93 189 q 62 456 54 364 q 106 640 69 549 q 207 804 142 731 q 368 926 272 878 q 592 983 464 975 l 592 971 q 402 917 481 965 q 272 797 324 869 q 193 634 221 724 q 156 454 165 544 q 202 563 172 517 q 270 638 232 608 q 352 683 308 668 q 440 697 396 697 q 547 676 494 697 q 640 616 599 656 q 709 519 682 576 q 740 386 736 461 m 160 324 q 189 187 164 247 q 251 85 214 126 q 334 23 289 44 q 425 1 379 1 q 513 23 471 1 q 587 90 556 44 q 635 206 618 136 q 646 372 651 276 q 621 499 642 446 q 567 588 600 553 q 495 640 535 624 q 414 657 456 657 q 317 635 364 657 q 233 569 269 613 q 176 465 196 526 q 160 324 156 403 z "},"7":{"ha":669,"x_min":10,"x_max":632,"o":"m 632 960 q 472 801 542 903 q 353 569 401 699 q 281 293 306 440 q 257 0 257 146 l 158 0 q 213 286 176 151 q 299 535 249 421 q 408 741 349 650 q 533 894 468 832 l 10 894 l 10 969 l 632 969 l 632 960 z "},"8":{"ha":789,"x_min":54,"x_max":729,"o":"m 485 540 q 576 485 532 514 q 655 422 621 457 q 709 343 689 386 q 729 246 729 300 q 703 137 729 186 q 630 53 678 88 q 514 -1 582 18 q 363 -21 446 -21 q 197 18 263 -18 q 96 108 131 54 q 58 227 61 163 q 79 352 54 292 q 158 462 104 413 q 292 535 211 511 q 226 577 257 554 q 174 628 196 600 q 138 692 151 657 q 125 772 125 728 q 144 851 125 813 q 198 919 163 889 q 285 968 233 950 q 403 986 336 986 l 407 986 q 554 957 496 986 q 642 883 613 928 q 674 785 671 839 q 656 681 676 731 q 591 593 635 632 q 485 540 547 554 m 176 810 q 203 727 176 764 q 272 660 229 690 q 369 601 315 629 q 478 544 424 574 q 547 609 518 568 q 591 697 576 650 q 603 792 606 744 q 579 880 601 840 q 512 944 557 919 q 396 969 467 969 q 236 926 296 969 q 176 810 176 883 m 386 -3 q 488 10 440 -3 q 572 49 536 24 q 629 113 608 75 q 650 200 650 150 q 617 319 650 271 q 533 404 585 368 q 420 469 482 440 q 301 529 358 497 q 205 457 244 506 q 147 349 165 408 q 131 228 128 290 q 163 114 135 165 q 247 30 192 63 q 386 -3 301 -3 z "},"9":{"ha":794,"x_min":49,"x_max":740,"o":"m 375 982 q 540 950 469 988 q 656 846 610 913 q 721 692 701 779 q 733 513 740 606 q 689 328 725 419 q 588 165 653 238 q 426 43 522 92 q 203 -14 331 -6 l 203 -3 q 392 51 314 3 q 522 172 471 99 q 601 335 574 244 q 639 514 629 425 q 592 406 622 451 q 524 331 563 360 q 443 287 486 301 q 356 272 400 272 q 249 293 301 272 q 156 353 197 314 q 86 451 114 393 q 54 583 58 508 q 73 748 49 675 q 142 872 97 821 q 248 950 188 922 q 375 982 308 978 m 149 596 q 174 469 153 522 q 227 381 194 415 q 299 329 260 346 q 381 313 339 313 q 478 335 431 313 q 562 399 525 357 q 619 503 599 442 q 635 644 639 565 q 606 783 631 722 q 543 884 581 843 q 460 947 506 925 q 369 968 415 968 q 281 946 324 968 q 208 878 239 924 q 160 762 176 832 q 149 596 143 692 z "},"\u0000":{"ha":0,"x_min":0,"x_max":0,"o":""},"\r":{"ha":0,"x_min":0,"x_max":0,"o":""}," ":{"ha":268,"x_min":0,"x_max":0,"o":""},"\n":{"ha":0,"x_min":0,"x_max":0,"o":""},"!":{"ha":261,"x_min":69,"x_max":192,"o":"m 122 144 l 81 969 l 182 969 l 138 144 l 122 144 m 131 108 q 174 90 157 108 q 192 46 192 72 q 174 3 192 21 q 131 -15 157 -15 q 88 3 106 -15 q 69 46 69 21 q 88 90 69 72 q 131 108 106 108 z "},"#":{"ha":1014,"x_min":25,"x_max":989,"o":"m 721 646 l 635 325 l 889 325 l 885 313 l 632 313 l 549 0 l 533 0 l 617 313 l 301 313 l 217 0 l 203 0 l 286 313 l 25 313 l 29 325 l 289 325 l 375 646 l 125 646 l 129 657 l 378 657 l 463 969 l 476 969 l 393 657 l 710 657 l 793 969 l 808 969 l 725 657 l 989 657 l 985 646 l 721 646 m 707 646 l 390 646 l 304 325 l 621 325 l 707 646 z "},"$":{"ha":799,"x_min":44,"x_max":742,"o":"m 742 297 q 713 163 742 221 q 635 66 683 104 q 524 8 586 28 q 396 -11 461 -11 l 396 -144 l 385 -144 l 385 -11 q 278 5 331 -10 q 180 47 225 19 q 99 116 135 75 q 44 211 64 157 l 82 228 q 133 138 101 176 q 206 72 165 99 q 292 30 246 44 q 385 13 338 15 l 385 472 q 282 517 332 493 q 194 571 232 540 q 132 641 156 601 q 108 732 108 681 q 132 835 108 790 q 194 912 156 881 q 282 960 232 943 q 385 981 332 978 l 385 1115 l 396 1115 l 396 981 q 485 971 440 981 q 568 939 529 961 q 638 884 607 917 q 686 806 668 851 l 653 788 q 542 917 613 875 q 396 961 471 958 l 396 576 q 518 530 457 553 q 629 476 579 507 q 710 402 679 444 q 742 297 742 360 m 163 794 q 181 721 163 753 q 229 664 199 689 q 300 619 260 639 q 385 582 340 599 l 385 961 q 301 950 342 961 q 230 917 261 939 q 181 864 199 894 q 163 794 163 833 m 396 11 q 506 24 453 10 q 601 67 560 38 q 667 142 642 97 q 692 246 692 188 q 666 321 692 289 q 599 378 640 353 q 504 424 557 403 q 396 468 451 446 l 396 11 z "},"%":{"ha":764,"x_min":38,"x_max":728,"o":"m 728 1067 l 47 -97 l 38 -97 l 718 1067 l 728 1067 m 224 613 q 126 640 165 613 q 67 710 86 668 q 47 802 47 753 q 67 894 47 851 q 126 964 86 936 q 224 992 165 992 q 321 964 282 992 q 379 894 360 936 q 399 802 399 851 q 379 710 399 753 q 321 640 360 668 q 224 613 282 613 m 174 976 q 118 934 136 967 q 99 859 100 901 q 110 772 97 817 q 146 691 122 726 q 202 637 169 656 q 272 628 235 618 q 328 670 310 638 q 347 745 346 703 q 336 833 349 788 q 300 913 324 878 q 244 967 276 949 q 174 976 211 986 m 542 358 q 640 330 600 358 q 699 260 679 301 q 718 168 718 218 q 699 76 718 118 q 640 6 679 35 q 542 -22 600 -22 q 444 6 483 -22 q 386 76 406 35 q 367 168 367 118 q 386 260 367 218 q 444 330 406 301 q 542 358 483 358 m 592 -7 q 647 37 629 4 q 667 111 665 69 q 656 199 668 153 q 619 279 643 244 q 563 333 596 314 q 493 342 531 353 q 437 299 456 332 q 417 224 418 267 q 428 137 415 182 q 464 56 440 92 q 521 2 488 21 q 592 -7 554 -17 z "},"&":{"ha":851,"x_min":43,"x_max":804,"o":"m 672 603 q 759 487 726 556 q 798 344 792 418 q 782 200 804 271 q 704 76 760 129 q 696 -10 707 35 q 656 -101 685 -54 q 664 -31 665 -65 q 651 36 663 3 q 549 -7 607 8 q 415 -22 490 -22 q 249 12 321 -22 q 129 101 176 46 q 63 224 82 156 q 55 360 43 292 q 112 491 67 429 q 240 594 157 553 q 208 673 219 633 q 196 753 196 713 q 214 855 196 811 q 260 927 232 899 q 326 970 289 956 q 400 985 363 985 q 468 972 435 985 q 527 936 501 960 q 568 876 553 913 q 583 792 583 840 l 574 792 q 557 869 571 836 q 521 922 543 901 q 472 953 499 943 q 418 964 446 964 q 362 953 389 964 q 314 923 335 943 q 280 874 293 903 q 267 808 267 846 q 294 688 267 746 q 365 573 322 629 q 460 462 408 517 q 560 351 513 407 q 646 238 608 296 q 697 119 683 181 q 755 207 733 156 q 778 325 776 258 q 756 465 779 399 q 668 599 733 532 l 672 603 m 144 360 q 173 214 144 276 q 247 110 201 151 q 351 48 293 68 q 469 28 410 28 q 639 72 563 28 q 560 201 611 138 q 451 326 508 264 q 338 453 393 389 q 244 585 282 518 q 168 488 192 540 q 144 360 144 435 z "},"(":{"ha":332,"x_min":65,"x_max":328,"o":"m 328 1050 q 206 745 247 908 q 164 416 165 582 q 202 92 163 250 q 322 -197 242 -67 l 314 -203 q 128 97 190 -62 q 65 421 65 257 q 129 747 65 585 q 322 1054 193 908 l 328 1050 z "},")":{"ha":332,"x_min":3,"x_max":265,"o":"m 8 1054 q 201 747 138 908 q 265 421 265 585 q 203 97 265 257 q 17 -203 140 -62 l 8 -197 q 128 92 89 -67 q 167 416 168 250 q 124 745 165 582 q 3 1050 83 908 l 8 1054 z "},"*":{"ha":260,"x_min":33,"x_max":225,"o":"m 221 799 l 133 849 l 133 749 l 125 749 l 125 849 l 39 799 l 33 807 l 119 857 l 33 906 l 39 914 l 125 865 l 125 964 l 133 964 l 133 865 l 221 914 l 225 906 l 139 857 l 225 807 l 221 799 z "},"+":{"ha":499,"x_min":31,"x_max":467,"o":"m 467 474 l 260 474 l 260 267 l 238 267 l 238 474 l 31 474 l 31 496 l 238 496 l 238 703 l 260 703 l 260 496 l 467 496 l 467 474 z "},",":{"ha":165,"x_min":26,"x_max":138,"o":"m 26 47 q 44 93 26 78 q 82 108 61 108 q 120 92 103 108 q 138 44 138 76 q 130 6 138 26 q 110 -33 122 -14 q 85 -67 99 -51 q 58 -90 71 -82 l 56 -87 q 73 -45 75 -62 q 60 -13 71 -28 q 38 15 50 1 q 26 47 26 29 z "},"-":{"ha":338,"x_min":8,"x_max":329,"o":"m 8 394 l 8 410 l 329 410 l 329 394 l 8 394 z "},".":{"ha":176,"x_min":26,"x_max":149,"o":"m 88 108 q 131 90 114 108 q 149 46 149 72 q 131 3 149 21 q 88 -15 114 -15 q 44 3 63 -15 q 26 46 26 21 q 44 90 26 72 q 88 108 63 108 z "},"/":{"ha":669,"x_min":14,"x_max":657,"o":"m 657 1024 l 29 -54 l 14 -54 l 643 1024 l 657 1024 z "},":":{"ha":204,"x_min":40,"x_max":163,"o":"m 101 469 q 58 488 76 469 q 40 532 40 506 q 58 575 40 557 q 101 593 76 593 q 145 575 128 593 q 163 532 163 557 q 145 488 163 506 q 101 469 128 469 m 101 204 q 58 222 76 204 q 40 265 40 240 q 58 310 40 292 q 101 328 76 328 q 145 310 128 328 q 163 265 163 292 q 145 222 163 240 q 101 204 128 204 z "},";":{"ha":210,"x_min":43,"x_max":165,"o":"m 104 469 q 61 488 79 469 q 43 532 43 506 q 61 575 43 557 q 104 593 79 593 q 148 575 131 593 q 165 532 165 557 q 148 488 165 506 q 104 469 131 469 m 49 267 q 66 313 49 297 q 104 328 83 328 q 142 312 125 328 q 160 264 160 296 q 152 226 160 246 q 133 187 144 206 q 107 153 121 168 q 81 129 93 138 l 78 131 q 95 174 97 156 q 83 206 93 192 q 60 235 72 221 q 49 267 49 249 z "},"<":{"ha":200,"x_min":36,"x_max":163,"o":"m 100 422 l 163 279 l 139 279 l 36 422 l 139 565 l 163 565 l 100 422 z "},"=":{"ha":325,"x_min":17,"x_max":308,"o":"m 17 554 l 308 554 l 308 532 l 17 532 l 17 554 m 17 436 l 308 436 l 308 415 l 17 415 l 17 436 z "},">":{"ha":200,"x_min":36,"x_max":163,"o":"m 163 422 l 61 279 l 36 279 l 99 422 l 36 565 l 61 565 l 163 422 z "},"?":{"ha":613,"x_min":26,"x_max":568,"o":"m 26 794 q 83 878 50 843 q 153 937 115 914 q 233 971 192 960 q 317 982 275 982 q 412 967 367 982 q 492 921 457 951 q 547 847 526 890 q 568 747 568 804 q 542 625 568 675 q 475 535 515 575 q 389 461 435 496 q 303 383 343 426 q 236 284 263 340 q 210 144 210 228 l 199 144 q 219 298 199 233 q 272 412 240 363 q 340 500 303 461 q 408 577 376 539 q 460 659 439 615 q 481 760 481 703 q 464 840 481 804 q 419 901 447 876 q 356 940 392 926 q 279 953 319 953 q 146 915 213 953 q 32 789 79 876 l 26 794 m 207 108 q 251 90 233 108 q 269 46 269 72 q 251 3 269 21 q 207 -15 233 -15 q 164 3 182 -15 q 146 46 146 21 q 164 90 146 72 q 207 108 182 108 z "},"@":{"ha":1039,"x_min":53,"x_max":982,"o":"m 471 982 q 687 939 593 982 q 844 826 781 896 q 942 667 908 757 q 978 485 975 578 q 954 302 982 392 q 868 143 926 213 q 719 31 810 74 q 506 -12 628 -12 q 257 44 356 -12 q 108 185 158 100 q 55 368 57 269 q 96 551 53 467 q 228 692 139 636 q 449 749 317 749 q 618 690 564 749 q 672 542 672 632 l 672 256 l 669 256 l 617 308 l 617 369 q 556 278 600 307 q 467 249 513 249 q 378 281 417 249 q 339 375 339 313 q 360 446 339 417 q 419 494 382 475 q 508 521 457 513 q 617 529 558 529 l 617 583 q 610 627 617 601 q 586 676 604 653 q 535 717 568 700 q 449 733 501 733 q 281 702 353 733 q 163 619 210 671 q 93 503 115 568 q 74 369 71 438 q 105 235 76 300 q 187 118 133 169 q 320 35 240 67 q 506 4 400 4 q 711 45 624 4 q 856 154 799 86 q 939 308 913 222 q 962 485 965 394 q 926 661 958 575 q 831 815 893 747 q 679 924 769 883 q 471 965 589 965 q 324 942 394 965 q 190 874 253 918 l 179 888 q 317 958 243 933 q 471 982 392 982 m 392 383 q 421 297 392 325 q 488 268 450 268 q 534 278 511 268 q 575 310 557 289 q 605 362 593 331 q 617 435 617 393 l 617 519 q 528 514 569 521 q 457 490 488 507 q 409 447 426 474 q 392 383 392 421 z "},"A":{"ha":713,"x_min":21,"x_max":707,"o":"m 603 0 l 497 293 l 336 89 q 244 8 292 33 q 154 -17 197 -17 q 85 1 117 -17 q 38 52 54 19 q 21 131 21 85 q 43 232 21 176 l 296 850 l 351 990 l 707 0 l 603 0 m 492 308 l 303 831 l 85 297 q 65 204 64 247 q 84 128 67 161 q 132 78 101 96 q 200 60 163 60 q 288 84 242 60 q 379 165 335 108 l 492 308 z "},"B":{"ha":751,"x_min":83,"x_max":718,"o":"m 375 558 q 494 517 433 536 q 604 467 554 497 q 686 390 654 438 q 718 263 718 342 q 697 158 718 206 q 633 74 675 110 q 532 19 592 39 q 396 0 472 0 l 83 0 l 83 969 l 307 969 q 540 922 461 969 q 618 767 618 875 q 603 692 618 728 q 558 628 589 656 q 482 581 528 600 q 375 558 436 563 m 532 771 q 480 908 532 858 q 307 957 428 957 l 244 957 q 191 933 203 953 q 178 865 179 914 l 178 806 q 192 713 178 751 q 232 646 207 674 q 290 598 257 618 q 361 563 324 578 q 432 584 400 565 q 486 632 464 603 q 520 697 508 661 q 532 771 532 733 m 385 13 q 489 33 444 13 q 563 90 533 54 q 606 177 592 126 q 619 288 619 228 q 592 392 619 351 q 521 462 564 433 q 425 513 478 490 q 323 561 372 535 q 234 624 274 588 q 178 719 194 661 l 178 129 q 181 67 178 90 q 197 32 185 44 q 235 16 210 19 q 306 13 261 13 l 385 13 z "},"C":{"ha":911,"x_min":46,"x_max":892,"o":"m 892 357 q 833 194 875 264 q 735 78 792 125 q 611 9 679 32 q 474 -14 543 -14 q 317 17 393 -14 q 180 108 240 47 q 83 261 119 169 q 46 475 46 353 q 85 705 46 608 q 190 864 124 801 q 341 956 256 926 q 519 985 426 985 q 669 967 594 985 q 814 915 743 949 l 793 874 q 641 939 718 918 q 490 960 564 960 q 340 935 411 960 q 217 860 269 910 q 135 738 165 811 q 104 567 104 664 q 140 338 104 435 q 233 179 175 242 q 364 86 290 117 q 514 56 438 56 q 637 76 576 56 q 747 134 697 96 q 834 229 797 172 q 886 358 871 286 l 892 357 z "},"D":{"ha":910,"x_min":83,"x_max":867,"o":"m 397 969 q 603 926 515 968 q 749 816 690 885 q 838 660 808 747 q 867 481 867 572 q 838 303 867 390 q 749 149 808 217 q 602 40 690 81 q 397 0 514 -1 l 83 0 l 83 969 l 397 969 m 397 13 q 560 53 490 13 q 676 160 629 94 q 745 312 722 226 q 768 485 768 397 q 745 658 768 574 q 676 810 722 743 q 560 917 629 876 q 397 957 490 957 l 306 957 q 235 953 261 957 q 197 938 210 950 q 181 902 185 925 q 178 840 178 879 l 178 129 q 181 67 178 90 q 197 32 185 44 q 235 16 210 19 q 306 13 261 13 l 397 13 z "},"E":{"ha":676,"x_min":83,"x_max":672,"o":"m 672 13 l 672 0 l 83 0 l 83 969 l 656 969 l 656 957 l 306 957 q 241 954 265 957 q 203 942 217 951 q 184 915 189 932 q 178 868 179 897 l 178 506 l 511 506 l 511 493 l 178 493 l 178 101 q 184 55 179 72 q 203 28 189 38 q 241 15 217 18 q 306 13 265 13 l 672 13 z "},"F":{"ha":650,"x_min":83,"x_max":656,"o":"m 656 957 l 306 957 q 241 954 265 957 q 203 942 217 951 q 184 915 189 932 q 178 868 179 897 l 178 436 l 511 436 l 511 424 l 178 424 l 178 0 l 83 0 l 83 969 l 656 969 l 656 957 z "},"G":{"ha":964,"x_min":43,"x_max":929,"o":"m 929 511 l 929 494 l 756 494 q 860 432 819 476 q 913 331 900 388 q 910 215 926 275 q 847 106 894 156 q 716 23 799 56 q 514 -10 633 -10 q 347 19 431 -10 q 196 106 264 47 q 85 258 128 165 q 43 476 43 350 q 86 699 43 604 q 201 857 129 794 q 365 950 272 919 q 557 981 458 981 q 838 917 703 981 l 817 874 q 675 939 749 918 q 529 960 601 960 q 377 934 450 960 q 249 859 304 908 q 160 737 193 810 q 128 568 128 664 q 169 330 128 433 q 277 156 211 226 q 424 49 343 85 q 582 13 504 13 q 717 48 663 13 q 799 138 771 83 q 831 253 828 192 q 810 369 833 315 q 739 459 788 424 q 615 494 690 494 l 615 511 l 929 511 z "},"H":{"ha":849,"x_min":83,"x_max":765,"o":"m 765 969 l 765 0 l 671 0 l 671 461 l 178 461 l 178 0 l 83 0 l 83 969 l 178 969 l 178 474 l 671 474 l 671 969 l 765 969 z "},"I":{"ha":261,"x_min":83,"x_max":178,"o":"m 83 0 l 83 969 l 178 969 l 178 0 l 83 0 z "},"J":{"ha":261,"x_min":39,"x_max":178,"o":"m 178 226 q 177 130 178 178 q 165 42 176 82 q 124 -26 153 3 q 42 -68 96 -56 l 39 -61 q 67 -17 57 -51 q 81 62 76 18 q 85 151 85 106 q 86 226 86 196 l 86 969 l 178 969 l 178 226 z "},"K":{"ha":747,"x_min":83,"x_max":747,"o":"m 83 0 l 83 969 l 176 969 l 176 0 l 83 0 m 619 0 l 219 469 l 694 969 l 717 969 l 293 525 l 747 0 l 619 0 z "},"L":{"ha":685,"x_min":83,"x_max":693,"o":"m 693 13 l 693 0 l 83 0 l 83 969 l 178 969 l 178 129 q 181 67 178 90 q 197 32 185 44 q 235 16 210 19 q 306 13 261 13 l 693 13 z "},"M":{"ha":1017,"x_min":78,"x_max":932,"o":"m 932 969 l 932 0 l 831 0 l 831 900 q 697 547 764 722 q 563 194 631 372 q 513 103 543 143 q 446 37 482 64 q 369 -3 410 10 q 290 -17 329 -17 q 210 -1 249 -17 q 142 46 171 14 q 95 126 113 78 q 78 239 78 174 l 78 969 l 149 969 l 540 189 q 551 208 546 199 q 558 228 556 217 q 700 599 629 414 q 843 969 771 783 l 932 969 m 93 351 q 114 226 93 279 q 168 137 135 172 q 244 84 201 101 q 333 67 288 67 q 464 107 404 67 l 93 844 l 93 351 z "},"N":{"ha":810,"x_min":83,"x_max":725,"o":"m 725 969 l 725 -18 l 710 -18 l 99 856 l 99 0 l 83 0 l 83 969 l 135 969 l 710 157 l 710 969 l 725 969 z "},"O":{"ha":1021,"x_min":43,"x_max":978,"o":"m 510 990 q 708 949 621 990 q 854 839 794 908 q 946 678 914 769 q 978 485 978 586 q 946 293 978 385 q 854 131 914 201 q 708 20 794 61 q 510 -21 621 -21 q 313 20 400 -21 q 166 131 226 61 q 74 293 106 201 q 43 485 43 385 q 74 678 43 586 q 166 839 106 769 q 313 949 226 908 q 510 990 400 990 m 592 18 q 742 53 681 15 q 840 156 804 92 q 885 302 875 219 q 883 472 896 385 q 835 644 871 560 q 742 797 799 729 q 607 906 685 864 q 432 951 529 949 q 283 917 344 954 q 185 815 221 879 q 137 668 149 751 q 137 497 125 585 q 183 326 149 410 q 276 174 218 242 q 413 64 333 107 q 592 18 492 21 z "},"P":{"ha":774,"x_min":83,"x_max":742,"o":"m 360 969 q 650 885 558 969 q 742 649 742 801 q 717 503 742 565 q 650 400 692 442 q 556 338 608 358 q 447 317 503 317 q 290 362 364 317 q 178 499 217 407 l 178 0 l 83 0 l 83 969 l 360 969 m 178 524 q 278 403 214 443 q 410 363 342 363 q 496 380 454 363 q 569 433 538 397 q 621 521 601 468 q 640 644 640 574 q 620 788 640 728 q 563 885 600 847 q 474 940 526 922 q 360 957 422 957 l 244 957 q 208 948 222 954 q 188 928 194 942 q 180 894 182 915 q 178 843 178 874 l 178 524 z "},"Q":{"ha":1021,"x_min":43,"x_max":978,"o":"m 978 485 q 958 328 978 404 q 898 190 938 253 q 801 78 858 126 q 669 6 743 31 q 703 -94 689 -44 q 718 -190 717 -144 q 703 -277 719 -236 q 646 -350 686 -318 l 643 -350 q 674 -289 671 -325 q 667 -209 678 -253 q 635 -116 656 -165 q 593 -14 614 -67 q 553 -19 574 -17 q 510 -21 532 -21 q 313 20 400 -21 q 166 131 226 61 q 74 293 106 201 q 43 485 43 385 q 74 678 43 586 q 166 839 106 769 q 313 949 226 908 q 510 990 400 990 q 708 949 621 990 q 854 839 794 908 q 946 678 914 769 q 978 485 978 586 m 663 24 q 785 85 736 38 q 859 199 833 132 q 889 347 885 265 q 876 510 893 428 q 822 672 860 593 q 728 811 785 750 q 598 910 672 872 q 432 951 524 949 q 283 917 344 954 q 185 817 222 881 q 137 672 149 754 q 135 502 125 589 q 180 331 146 415 q 270 180 214 247 q 404 69 326 113 q 581 19 482 25 q 549 110 563 65 q 534 198 536 156 q 544 280 532 240 q 586 353 556 319 l 588 351 q 571 294 569 329 q 585 215 572 258 q 620 124 599 172 q 663 24 642 75 z "},"R":{"ha":824,"x_min":83,"x_max":826,"o":"m 296 358 q 396 253 340 307 q 518 152 451 200 q 662 65 585 104 q 826 0 739 25 l 626 0 q 558 28 599 0 q 470 103 517 57 q 377 205 424 149 q 290 317 331 261 q 219 421 249 372 q 178 499 189 469 l 178 0 l 83 0 l 83 969 l 360 969 q 650 885 558 969 q 742 649 742 801 q 717 503 742 565 q 650 400 692 442 q 556 338 608 358 q 447 317 503 317 q 296 358 365 317 m 178 524 q 278 403 214 443 q 410 363 342 363 q 496 380 454 363 q 569 433 538 397 q 621 521 601 468 q 640 644 640 574 q 620 788 640 728 q 563 885 600 847 q 474 940 526 922 q 360 957 422 957 l 244 957 q 208 948 222 954 q 188 928 194 942 q 180 894 182 915 q 178 843 178 874 l 178 524 z "},"S":{"ha":758,"x_min":24,"x_max":721,"o":"m 142 801 q 167 716 142 751 q 232 653 192 681 q 324 604 272 625 q 431 563 376 583 q 538 520 486 543 q 631 468 590 497 q 696 399 671 439 q 721 306 721 360 q 692 171 721 229 q 614 74 663 113 q 503 17 565 36 q 374 -3 440 -3 q 264 11 318 -3 q 163 53 210 25 q 80 122 117 81 q 24 218 43 163 l 61 235 q 117 139 82 179 q 196 72 151 99 q 290 33 240 46 q 390 19 340 19 q 495 35 444 19 q 585 79 546 50 q 647 152 624 108 q 671 253 671 196 q 628 348 671 310 q 519 416 585 386 q 379 473 454 446 q 239 535 304 500 q 131 618 174 569 q 88 739 88 667 q 113 847 88 800 q 178 924 138 893 q 272 972 219 956 q 381 988 325 988 q 469 977 425 988 q 550 945 513 967 q 618 890 588 924 q 665 813 649 857 l 632 796 q 581 874 611 842 q 515 928 551 907 q 440 959 479 949 q 361 969 400 969 q 278 958 318 969 q 208 924 239 946 q 160 872 178 903 q 142 801 142 840 z "},"T":{"ha":671,"x_min":-8,"x_max":679,"o":"m 679 957 l 382 957 l 382 0 l 289 0 l 289 957 l -8 957 l -8 969 l 679 969 l 679 957 z "},"U":{"ha":832,"x_min":71,"x_max":763,"o":"m 761 376 q 733 210 763 282 q 656 91 704 139 q 544 19 607 43 q 417 -4 482 -4 q 289 19 351 -4 q 178 91 226 43 q 100 210 129 139 q 71 376 71 282 l 71 969 l 163 969 l 163 376 q 186 230 163 292 q 249 127 210 168 q 340 66 289 86 q 443 46 390 46 q 553 67 499 46 q 649 131 607 89 q 718 234 692 172 q 744 376 744 296 l 744 969 l 761 969 l 761 376 z "},"V":{"ha":713,"x_min":6,"x_max":692,"o":"m 376 883 q 468 965 421 939 q 558 990 515 990 q 626 972 596 990 q 674 922 657 954 q 692 843 692 889 q 669 742 692 797 l 361 -17 l 6 972 l 108 972 l 215 679 l 376 883 m 628 676 q 647 769 649 726 q 628 845 646 813 q 581 896 611 878 q 513 914 550 914 q 424 889 471 914 q 332 807 376 864 l 221 664 l 410 142 l 628 676 z "},"W":{"ha":1124,"x_min":6,"x_max":1104,"o":"m 708 833 q 803 959 744 919 q 922 999 863 999 q 1008 977 968 999 q 1072 917 1049 956 q 1100 825 1096 879 q 1076 704 1104 771 l 783 -17 l 590 521 l 361 -17 l 6 972 l 108 972 l 411 138 l 583 542 l 428 972 l 532 972 l 639 674 l 708 833 m 1035 638 q 1057 749 1060 697 q 1033 838 1054 800 q 975 897 1011 875 q 897 918 939 918 q 783 876 842 918 q 683 736 725 833 l 647 653 l 832 142 l 1035 638 z "},"X":{"ha":736,"x_min":10,"x_max":731,"o":"m 621 0 l 339 447 l 43 0 l 21 0 l 328 465 l 10 969 l 125 969 l 390 544 l 671 969 l 693 969 l 401 526 l 731 0 l 621 0 z "},"Y":{"ha":717,"x_min":-3,"x_max":718,"o":"m 424 436 l 422 436 l 422 0 l 329 0 l 329 436 l 328 436 l -3 969 l 103 969 l 415 475 l 701 969 l 718 969 l 422 457 l 422 440 l 424 436 z "},"Z":{"ha":650,"x_min":10,"x_max":640,"o":"m 640 13 l 640 0 l 10 0 l 10 13 l 513 957 l 33 957 l 33 969 l 625 969 l 625 957 l 117 13 l 640 13 z "},"[":{"ha":189,"x_min":83,"x_max":200,"o":"m 200 -121 l 200 -132 l 83 -132 l 83 1019 l 200 1019 l 200 1007 l 106 1007 l 106 -121 l 200 -121 z "},"\\":{"ha":669,"x_min":11,"x_max":654,"o":"m 654 -54 l 640 -54 l 11 1024 l 25 1024 l 654 -54 z "},"]":{"ha":189,"x_min":-11,"x_max":106,"o":"m 106 1019 l 106 -132 l -11 -132 l -11 -121 l 83 -121 l 83 1007 l -11 1007 l -11 1019 l 106 1019 z "},"_":{"ha":481,"x_min":0,"x_max":481,"o":"m 0 -14 l 0 3 l 481 3 l 481 -14 l 0 -14 z "},"a":{"ha":665,"x_min":39,"x_max":593,"o":"m 593 475 l 593 -1 l 588 -1 l 501 86 l 501 189 q 461 100 488 138 q 401 38 435 63 q 328 0 367 13 q 251 -12 290 -12 q 172 1 210 -12 q 104 42 133 15 q 57 107 75 68 q 39 197 39 146 q 75 317 39 268 q 174 395 111 365 q 320 439 236 425 q 501 453 404 453 l 501 543 q 485 627 501 592 q 443 686 469 663 q 381 722 417 710 q 308 733 346 733 q 198 708 253 733 q 103 633 143 682 l 89 646 q 141 694 111 672 q 206 732 171 717 q 277 756 240 747 q 350 765 314 765 q 441 749 397 765 q 519 699 485 733 q 573 610 553 665 q 593 475 593 554 m 128 210 q 141 126 128 163 q 176 66 154 90 q 226 30 197 42 q 286 18 256 18 q 363 35 324 18 q 432 88 401 53 q 482 176 463 124 q 501 296 501 228 l 501 438 q 354 428 422 439 q 235 390 286 417 q 156 318 185 363 q 128 210 128 274 z "},"b":{"ha":825,"x_min":78,"x_max":776,"o":"m 171 517 q 217 624 186 578 q 288 701 247 669 q 375 748 328 732 q 471 764 422 764 q 583 742 528 764 q 681 674 638 719 q 750 558 724 628 q 776 396 776 489 q 742 209 776 286 q 654 83 708 132 q 533 11 600 33 q 399 -11 465 -11 q 328 -3 357 -11 q 274 15 299 6 q 228 33 250 25 q 182 42 207 42 q 129 32 157 42 q 78 0 101 22 l 78 1099 l 171 1151 l 171 517 m 171 279 q 190 160 171 211 q 242 76 210 110 q 315 24 274 42 q 400 7 356 7 q 499 29 450 7 q 588 95 549 51 q 651 204 626 139 q 675 357 675 269 q 655 528 675 457 q 602 644 635 599 q 527 710 569 689 q 439 731 485 731 q 342 708 390 731 q 256 643 294 685 q 194 542 218 601 q 171 411 171 483 l 171 279 z "},"c":{"ha":789,"x_min":46,"x_max":758,"o":"m 758 272 q 709 147 744 201 q 625 56 674 93 q 518 1 576 19 q 400 -17 460 -17 q 269 7 333 -17 q 156 78 206 31 q 76 197 107 125 q 46 364 46 268 q 80 538 46 463 q 169 663 114 613 q 293 738 224 713 q 433 763 363 763 q 598 726 521 763 q 722 614 675 689 l 674 578 q 546 695 624 657 q 389 733 468 733 q 287 716 336 733 q 200 665 238 699 q 140 580 163 631 q 117 461 117 529 q 147 279 117 357 q 225 149 176 201 q 335 71 274 97 q 460 44 396 44 q 551 58 506 44 q 635 101 596 72 q 705 172 674 129 q 754 274 736 215 l 758 272 z "},"d":{"ha":819,"x_min":46,"x_max":740,"o":"m 740 1151 l 740 -8 l 735 -8 l 647 79 l 647 269 q 598 146 631 199 q 522 57 565 93 q 428 3 479 21 q 328 -15 378 -15 q 223 6 274 -15 q 133 70 172 28 q 69 177 93 113 q 46 329 46 242 q 81 517 46 438 q 171 651 115 597 q 296 731 226 704 q 433 757 365 757 q 551 735 496 757 q 647 669 607 714 l 647 1099 l 740 1151 m 647 382 l 647 510 q 626 603 647 563 q 570 672 606 644 q 490 715 535 700 q 396 729 444 729 q 291 711 343 729 q 197 654 239 693 q 130 557 156 615 q 104 417 104 499 q 127 254 104 324 q 188 140 150 185 q 275 74 226 96 q 374 51 324 51 q 474 73 425 51 q 562 136 524 94 q 624 240 600 178 q 647 382 647 301 z "},"e":{"ha":756,"x_min":47,"x_max":724,"o":"m 724 286 q 674 155 708 211 q 592 61 639 99 q 490 5 546 24 q 378 -14 435 -14 q 256 10 315 -14 q 150 80 196 33 q 76 197 104 126 q 47 363 47 268 q 78 543 47 468 q 159 666 110 618 q 271 736 208 714 q 396 758 333 758 q 499 743 450 758 q 588 699 549 728 q 649 631 626 671 q 672 540 672 590 l 115 542 q 110 507 113 526 q 107 471 107 488 q 133 286 107 363 q 203 161 160 210 q 301 90 246 113 q 414 68 356 68 q 512 83 464 68 q 601 128 560 99 q 674 197 643 157 q 719 288 706 238 l 724 286 m 567 599 q 551 658 567 632 q 511 703 536 685 q 453 731 486 721 q 382 740 419 740 q 306 730 344 740 q 231 697 267 719 q 167 640 196 674 q 119 557 138 606 l 519 558 q 558 567 550 558 q 567 599 567 576 z "},"f":{"ha":379,"x_min":14,"x_max":375,"o":"m 375 1115 q 306 1099 336 1115 q 257 1056 276 1083 q 227 994 238 1029 q 217 924 217 960 l 217 751 l 375 751 l 375 739 l 217 739 l 217 0 l 124 0 l 124 739 l 14 739 l 14 751 l 124 751 l 124 811 q 136 935 124 878 q 178 1034 149 992 q 255 1101 207 1076 q 375 1125 303 1125 l 375 1115 z "},"g":{"ha":728,"x_min":44,"x_max":736,"o":"m 403 61 q 540 58 478 64 q 645 34 601 53 q 713 -21 689 15 q 736 -117 736 -57 q 705 -228 736 -175 q 612 -320 674 -281 q 458 -383 550 -360 q 242 -407 365 -407 l 242 -394 q 368 -385 294 -394 q 510 -352 442 -376 q 626 -285 578 -328 q 674 -176 674 -243 q 610 -50 674 -85 q 403 -22 546 -15 q 340 -22 371 -22 q 279 -21 308 -21 q 215 -16 244 -21 q 162 1 185 -11 q 126 33 139 13 q 113 82 113 53 q 148 146 113 117 q 254 182 183 175 q 172 217 210 193 q 105 276 133 240 q 60 358 76 311 q 44 465 44 406 q 69 594 44 539 q 137 687 94 650 q 235 742 179 724 q 351 760 290 760 l 676 782 l 672 743 l 438 750 q 523 715 483 739 q 591 656 563 692 q 636 573 619 621 q 653 465 653 525 q 628 336 653 392 q 561 244 603 281 q 465 188 519 207 q 349 169 410 169 q 326 170 338 169 q 303 172 314 171 q 199 156 236 169 q 161 118 161 142 q 172 90 161 101 q 201 72 183 79 q 241 62 218 65 q 288 58 264 58 q 352 60 321 58 q 403 61 383 61 m 286 738 q 169 675 208 724 q 123 562 131 626 q 136 427 115 497 q 197 301 157 357 q 295 213 238 244 q 419 192 353 181 q 508 232 474 201 q 559 306 543 263 q 575 399 575 349 q 561 501 575 450 q 521 599 547 553 q 459 679 494 646 q 380 729 424 713 q 286 738 336 746 z "},"h":{"ha":751,"x_min":78,"x_max":682,"o":"m 682 496 l 682 0 l 589 0 l 589 496 q 572 595 589 553 q 528 665 556 638 q 464 707 500 693 q 390 721 428 721 q 311 705 350 721 q 241 658 272 689 q 190 582 210 628 q 171 476 171 536 l 171 0 l 78 0 l 78 1099 l 171 1151 l 171 583 q 213 658 186 626 q 275 712 240 690 q 349 744 310 733 q 428 756 388 756 q 522 740 476 756 q 602 692 567 724 q 659 610 638 660 q 681 496 681 561 l 682 496 z "},"i":{"ha":247,"x_min":65,"x_max":181,"o":"m 181 954 q 163 906 181 931 q 122 853 146 881 q 82 906 99 881 q 65 954 65 931 q 82 995 65 978 q 122 1013 99 1013 q 163 995 146 1013 q 181 954 181 978 m 76 706 l 169 757 l 169 0 l 76 0 l 76 706 z "},"j":{"ha":249,"x_min":31,"x_max":181,"o":"m 181 954 q 164 906 181 931 q 124 853 147 881 q 83 906 100 881 q 65 954 65 931 q 83 995 65 978 q 124 1013 100 1013 q 164 995 147 1013 q 181 954 181 978 m 169 14 q 169 -83 169 -35 q 156 -170 168 -131 q 116 -239 144 -210 q 33 -281 88 -268 l 31 -274 q 58 -229 49 -264 q 72 -151 68 -194 q 77 -62 76 -107 q 78 14 78 -18 l 78 706 l 169 757 l 169 14 z "},"k":{"ha":660,"x_min":78,"x_max":654,"o":"m 224 346 l 171 290 l 171 0 l 78 0 l 78 1099 l 171 1151 l 171 317 l 579 749 l 604 749 l 286 413 l 654 0 l 528 0 l 224 346 z "},"l":{"ha":249,"x_min":78,"x_max":171,"o":"m 171 1151 l 171 0 l 78 0 l 78 1099 l 171 1151 z "},"m":{"ha":1189,"x_min":75,"x_max":1119,"o":"m 1119 496 l 1119 0 l 1026 0 l 1026 496 q 1011 595 1026 553 q 970 665 996 638 q 912 707 944 693 q 844 721 879 721 q 775 706 810 721 q 713 663 740 692 q 666 593 685 635 q 644 496 647 551 l 644 0 l 551 0 l 551 496 q 536 595 551 553 q 495 665 521 638 q 437 707 469 693 q 369 721 404 721 q 296 705 332 721 q 231 658 260 689 q 185 582 203 628 q 168 476 168 536 l 168 0 l 75 0 l 75 669 l 168 749 l 168 586 q 208 660 183 628 q 265 713 233 692 q 333 744 297 733 q 407 756 369 756 q 483 744 446 756 q 550 708 519 732 q 603 649 581 685 q 636 565 626 614 q 674 648 649 613 q 733 708 700 683 q 805 744 767 732 q 882 756 843 756 q 969 740 926 756 q 1044 692 1011 724 q 1098 610 1078 660 q 1118 496 1118 561 l 1119 496 z "},"n":{"ha":749,"x_min":75,"x_max":679,"o":"m 679 496 l 679 0 l 586 0 l 586 496 q 569 595 586 553 q 525 665 553 638 q 461 707 497 693 q 388 721 425 721 q 308 705 347 721 q 238 658 269 689 q 188 582 207 628 q 168 476 168 536 l 168 0 l 75 0 l 75 669 l 168 749 l 168 583 q 210 658 183 626 q 272 712 238 690 q 346 744 307 733 q 425 756 385 756 q 519 740 474 756 q 599 692 564 724 q 656 610 635 660 q 678 496 678 561 l 679 496 z "},"o":{"ha":804,"x_min":44,"x_max":760,"o":"m 401 757 q 553 726 486 757 q 665 641 619 694 q 735 518 711 588 q 760 371 760 449 q 735 225 760 294 q 665 102 711 156 q 553 17 619 49 q 401 -14 486 -14 q 251 17 317 -14 q 139 102 185 49 q 69 225 93 156 q 44 371 44 294 q 69 518 44 449 q 139 641 93 588 q 251 726 185 694 q 401 757 317 757 m 128 454 q 156 263 126 344 q 232 126 185 181 q 338 45 279 72 q 454 18 396 18 q 537 33 497 18 q 607 79 576 49 q 656 156 638 110 q 675 261 674 201 q 648 460 678 374 q 569 606 618 547 q 461 694 521 664 q 343 725 401 725 q 263 708 301 725 q 194 658 224 692 q 147 574 165 625 q 128 454 129 524 z "},"p":{"ha":825,"x_min":76,"x_max":776,"o":"m 169 522 q 213 628 185 583 q 279 701 242 672 q 361 745 317 731 q 451 760 406 760 q 569 736 511 760 q 674 666 628 713 q 748 552 719 619 q 776 397 776 485 q 744 203 776 283 q 660 74 711 124 q 544 1 608 24 q 414 -22 479 -22 q 272 5 339 -22 q 169 81 206 32 l 169 -408 l 76 -408 l 76 706 l 169 757 l 169 522 m 169 290 q 190 165 169 219 q 245 73 211 110 q 323 17 279 36 q 413 -1 367 -1 q 508 19 461 -1 q 591 83 554 40 q 651 192 628 126 q 674 346 674 257 q 652 515 674 444 q 596 632 631 586 q 517 699 561 678 q 425 721 472 721 q 331 699 378 721 q 249 638 285 678 q 192 542 214 599 q 169 414 169 485 l 169 290 z "},"q":{"ha":826,"x_min":47,"x_max":747,"o":"m 747 756 l 747 -410 l 656 -410 l 656 214 q 612 109 640 154 q 545 35 583 64 q 463 -9 507 6 q 372 -24 418 -24 q 254 0 313 -24 q 150 70 196 24 q 76 184 104 117 q 47 339 47 251 q 80 533 47 453 q 165 663 113 613 q 281 735 217 713 q 411 758 346 758 q 552 731 486 758 q 656 656 618 704 l 656 704 l 747 756 m 656 324 l 656 447 q 635 573 656 518 q 580 664 614 628 q 502 719 546 700 q 413 738 458 738 q 317 717 364 738 q 234 653 271 696 q 174 544 197 610 q 151 390 151 479 q 173 221 151 292 q 229 105 194 150 q 308 38 264 60 q 400 17 353 17 q 494 38 449 17 q 576 98 540 58 q 633 194 611 138 q 656 324 656 251 z "},"r":{"ha":419,"x_min":76,"x_max":419,"o":"m 169 553 q 206 633 182 594 q 262 699 229 671 q 334 742 294 726 q 419 757 374 758 l 401 715 q 290 692 335 718 q 218 626 244 665 q 181 538 192 586 q 169 449 169 490 l 169 0 l 76 0 l 76 706 l 169 757 l 169 553 z "},"s":{"ha":604,"x_min":29,"x_max":567,"o":"m 142 631 q 173 544 142 579 q 251 483 204 510 q 354 434 299 457 q 457 383 410 411 q 535 317 504 356 q 567 222 567 279 q 544 117 567 163 q 483 41 521 71 q 398 -4 446 11 q 300 -19 350 -19 q 215 -8 257 -19 q 137 24 174 3 q 72 78 100 46 q 29 154 44 111 l 68 168 q 110 92 83 125 q 171 36 138 58 q 241 3 204 14 q 315 -8 278 -8 q 388 3 353 -8 q 448 39 422 15 q 490 98 474 63 q 506 181 506 133 q 474 256 506 225 q 395 311 443 286 q 292 359 347 336 q 190 411 238 382 q 110 479 142 440 q 79 575 79 518 q 97 654 79 619 q 145 713 115 689 q 213 748 175 736 q 292 760 251 760 q 421 725 360 760 q 510 619 482 690 l 468 607 q 386 715 440 681 q 278 749 332 749 q 183 718 224 749 q 142 631 142 688 z "},"t":{"ha":360,"x_min":24,"x_max":350,"o":"m 192 194 q 202 124 192 158 q 232 62 213 89 q 281 19 251 35 q 350 3 311 3 l 350 -7 q 230 17 278 -7 q 153 84 182 42 q 111 183 124 126 q 99 307 99 240 l 99 736 l 24 736 l 24 749 l 99 749 l 99 865 l 192 918 l 192 749 l 317 749 l 317 736 l 192 736 l 192 194 z "},"u":{"ha":750,"x_min":68,"x_max":672,"o":"m 672 757 l 672 0 l 579 35 l 579 231 q 542 122 568 168 q 479 46 515 76 q 401 0 443 15 q 315 -15 358 -15 q 224 2 268 -15 q 144 54 179 19 q 89 140 110 89 q 68 260 68 192 l 68 706 l 161 757 l 161 260 q 178 168 161 208 q 222 100 194 128 q 286 57 250 72 q 360 42 322 42 q 439 60 400 42 q 509 116 478 78 q 560 213 540 154 q 579 356 579 272 l 579 706 l 672 757 z "},"v":{"ha":657,"x_min":11,"x_max":646,"o":"m 646 749 l 342 0 l 317 0 l 11 749 l 114 749 l 372 126 l 625 749 l 646 749 z "},"w":{"ha":1014,"x_min":11,"x_max":1003,"o":"m 1003 749 l 699 0 l 674 0 l 507 408 l 342 0 l 317 0 l 11 749 l 114 749 l 372 126 l 497 433 l 368 749 l 471 749 l 549 561 l 625 749 l 646 749 l 560 536 l 729 126 l 982 749 l 1003 749 z "},"x":{"ha":592,"x_min":15,"x_max":572,"o":"m 475 0 l 269 336 l 51 0 l 32 0 l 260 351 l 15 749 l 118 749 l 321 415 l 536 749 l 556 749 l 329 400 l 572 0 l 475 0 z "},"y":{"ha":619,"x_min":-42,"x_max":608,"o":"m 608 749 l 325 49 q 278 -65 303 -4 q 213 -178 253 -126 q 113 -265 174 -231 q -42 -300 51 -300 l -42 -285 q 65 -266 19 -283 q 146 -222 111 -249 q 205 -160 181 -194 q 247 -88 229 -125 q 278 -16 265 -51 q 303 47 292 19 q 310 66 307 57 q 318 83 314 75 l 8 749 l 111 749 l 365 203 q 419 335 394 274 q 469 458 443 396 q 523 590 494 521 q 588 749 551 660 l 608 749 z "},"z":{"ha":586,"x_min":15,"x_max":569,"o":"m 569 738 l 129 17 l 551 17 l 551 0 l 15 0 l 15 15 l 460 735 l 44 735 l 44 751 l 569 751 l 569 738 z "},"{":{"ha":267,"x_min":64,"x_max":228,"o":"m 228 1039 q 190 993 199 1039 q 182 871 182 947 l 182 558 q 180 536 182 553 q 172 501 178 519 q 153 467 165 483 q 119 443 140 450 q 153 423 140 438 q 172 392 165 408 q 180 358 178 375 q 182 329 182 340 l 182 15 q 188 -106 182 -60 q 228 -151 194 -151 l 228 -161 q 169 -147 192 -161 q 132 -108 146 -132 q 113 -51 118 -83 q 108 17 108 -19 l 108 346 q 108 374 108 358 q 104 403 108 390 q 91 426 100 417 q 64 438 82 436 l 64 450 q 90 461 81 451 q 103 484 99 471 q 108 513 107 497 q 108 540 108 528 l 108 871 q 113 939 108 907 q 132 995 118 971 q 169 1033 146 1019 q 228 1047 192 1047 l 228 1039 z "},"|":{"ha":179,"x_min":83,"x_max":96,"o":"m 83 -144 l 83 1115 l 96 1115 l 96 -144 l 83 -144 z "},"}":{"ha":267,"x_min":38,"x_max":201,"o":"m 157 540 q 158 513 157 528 q 163 484 158 497 q 176 461 167 471 q 201 450 185 451 l 201 438 q 176 426 185 436 q 163 403 167 417 q 158 374 158 390 q 157 346 157 358 l 157 17 q 152 -51 157 -19 q 133 -108 147 -83 q 97 -147 119 -132 q 38 -161 74 -161 l 38 -151 q 77 -106 71 -151 q 83 15 83 -60 l 83 329 q 85 358 83 340 q 94 392 88 375 q 113 423 100 408 q 146 443 125 438 q 113 467 125 450 q 94 501 100 483 q 85 536 88 519 q 83 558 83 553 l 83 871 q 75 993 83 947 q 38 1039 67 1039 l 38 1047 q 97 1033 74 1047 q 133 995 119 1019 q 152 939 147 971 q 157 871 157 907 l 157 540 z "}," ":{"ha":414,"x_min":0,"x_max":0,"o":""},"¡":{"ha":240,"x_min":58,"x_max":181,"o":"m 119 633 q 76 651 94 633 q 58 696 58 669 q 76 739 58 721 q 119 757 94 757 q 163 739 146 757 q 181 696 181 721 q 163 651 181 669 q 119 633 146 633 m 128 597 l 171 -228 l 69 -228 l 114 597 l 128 597 z "},"¢":{"ha":814,"x_min":56,"x_max":768,"o":"m 768 276 q 719 153 754 206 q 638 63 685 100 q 533 8 590 26 q 418 -12 476 -11 l 418 -133 l 406 -133 l 406 -12 q 276 13 339 -11 q 165 83 214 36 q 85 200 115 129 q 56 367 56 271 q 85 530 56 458 q 164 651 115 601 q 276 728 213 700 q 406 763 339 757 l 406 864 l 418 864 l 418 764 q 597 734 511 771 q 732 618 682 697 l 683 581 q 565 694 636 656 q 418 736 493 732 l 418 51 q 524 53 471 43 q 623 90 576 63 q 706 165 669 118 q 764 276 743 211 l 768 276 m 126 465 q 149 303 126 375 q 211 181 172 232 q 300 98 250 129 q 406 54 350 67 l 406 738 q 301 722 351 739 q 212 672 250 706 q 150 586 174 638 q 126 465 126 535 z "},"£":{"ha":653,"x_min":31,"x_max":615,"o":"m 615 85 l 615 0 l 31 0 q 100 33 71 11 q 149 92 129 56 q 178 184 168 129 q 188 315 188 239 l 188 479 l 67 479 l 67 493 l 188 493 l 188 758 q 204 853 188 813 q 248 922 221 894 q 309 962 275 949 q 379 975 343 975 q 460 956 421 975 q 526 900 499 938 l 518 893 q 465 935 494 921 q 407 949 435 949 q 319 903 357 949 q 282 758 282 858 l 282 493 l 536 493 l 536 479 l 282 479 l 282 315 q 262 178 282 233 q 208 85 242 122 l 615 85 z "},"¥":{"ha":797,"x_min":33,"x_max":754,"o":"m 458 444 l 708 444 l 708 431 l 458 431 l 458 254 l 708 254 l 708 242 l 458 242 l 458 0 l 365 0 l 365 242 l 115 242 l 115 254 l 365 254 l 365 431 l 115 431 l 115 444 l 358 444 l 33 969 l 139 969 l 451 475 l 738 969 l 754 969 l 458 457 l 458 444 z "},"§":{"ha":839,"x_min":44,"x_max":788,"o":"m 788 444 q 771 353 788 393 q 726 283 754 313 q 660 235 697 254 q 582 208 624 217 q 557 106 581 150 q 497 33 533 63 q 413 -10 460 4 q 315 -25 365 -25 q 231 -14 272 -25 q 152 19 189 -3 q 88 73 115 40 q 44 149 60 106 l 83 163 q 126 87 99 119 q 186 32 153 54 q 256 -1 219 10 q 331 -12 293 -12 q 403 -1 368 -12 q 463 35 438 11 q 505 94 489 58 q 521 176 521 129 q 490 251 521 221 q 410 307 458 282 q 308 355 363 332 q 205 407 253 378 q 126 475 157 436 q 94 569 94 514 q 113 649 94 614 q 160 706 131 683 q 227 742 189 729 q 306 754 265 754 q 300 797 300 772 q 318 876 300 842 q 366 935 336 911 q 434 970 396 958 q 513 982 472 982 q 642 947 581 982 q 731 842 703 913 l 689 831 q 607 938 661 904 q 499 971 553 971 q 403 940 444 971 q 363 854 363 910 q 394 767 363 803 q 472 706 425 732 q 575 656 519 679 q 678 606 631 633 q 756 540 725 578 q 788 444 788 501 m 582 219 q 685 278 643 232 q 726 404 726 324 q 700 474 726 444 q 633 526 674 503 q 542 569 592 549 q 447 615 493 590 q 363 669 400 639 q 310 742 326 700 q 253 738 281 744 q 204 716 225 731 q 170 678 183 701 q 157 626 157 656 q 188 540 157 575 q 266 478 219 504 q 367 429 313 451 q 469 379 422 407 q 549 313 517 351 q 582 219 581 275 z "},"¨":{"ha":294,"x_min":24,"x_max":269,"o":"m 69 933 q 102 920 89 933 q 115 888 115 907 q 102 855 115 868 q 69 842 89 842 q 37 855 50 842 q 24 888 24 868 q 37 920 24 907 q 69 933 50 933 m 225 933 q 257 920 244 933 q 269 888 269 907 q 257 855 269 868 q 225 842 244 842 q 192 855 206 842 q 179 888 179 868 q 192 920 179 907 q 225 933 206 933 z "},"©":{"ha":1113,"x_min":57,"x_max":1056,"o":"m 556 983 q 751 944 660 983 q 909 838 842 906 q 1016 678 976 769 q 1056 485 1056 588 q 1016 290 1056 381 q 909 132 976 200 q 751 25 842 64 q 556 -14 660 -14 q 362 25 453 -14 q 203 132 271 64 q 97 290 136 200 q 57 485 57 381 q 97 678 57 588 q 203 838 136 769 q 362 944 271 906 q 556 983 453 983 m 556 8 q 741 46 654 8 q 892 148 828 83 q 994 299 957 213 q 1032 485 1032 386 q 994 670 1032 583 q 892 822 957 757 q 741 924 828 886 q 556 961 654 961 q 370 924 457 961 q 219 822 283 886 q 117 670 154 757 q 79 485 79 583 q 117 299 79 386 q 219 148 154 213 q 370 46 283 83 q 556 8 457 8 m 319 553 q 343 409 319 472 q 404 303 367 346 q 490 238 442 260 q 589 215 539 215 q 723 262 660 215 q 818 408 786 308 l 821 407 q 783 311 810 353 q 718 241 756 269 q 636 199 681 213 q 546 185 592 185 q 445 203 494 185 q 358 258 396 221 q 297 349 319 294 q 274 478 274 404 q 300 611 274 554 q 369 706 326 668 q 465 764 411 744 q 572 783 518 783 q 698 756 639 783 q 793 671 757 728 l 756 642 q 656 732 717 703 q 533 761 596 761 q 453 748 492 761 q 385 709 414 735 q 338 644 356 683 q 319 553 319 606 z "},"ª":{"ha":307,"x_min":40,"x_max":263,"o":"m 60 861 q 105 893 76 881 q 164 906 133 906 q 232 881 201 906 q 263 794 263 856 l 263 613 l 260 613 l 218 646 l 218 685 q 179 626 207 644 q 122 607 151 607 q 65 628 90 607 q 40 689 40 649 q 92 764 40 742 q 218 786 143 786 l 218 821 q 196 875 218 857 q 144 893 174 893 q 101 884 122 893 q 65 856 81 875 l 60 861 m 83 693 q 101 642 83 660 q 140 625 118 625 q 193 651 168 625 q 218 733 218 678 l 218 781 q 120 762 157 782 q 83 693 83 742 z "},"«":{"ha":288,"x_min":36,"x_max":251,"o":"m 100 422 l 163 279 l 139 279 l 36 422 l 139 565 l 163 565 l 100 422 m 189 422 l 251 279 l 226 279 l 124 422 l 226 565 l 251 565 l 189 422 z "},"­":{"ha":0,"x_min":0,"x_max":0,"o":""},"®":{"ha":1113,"x_min":57,"x_max":1056,"o":"m 556 983 q 751 944 660 983 q 909 838 842 906 q 1016 678 976 769 q 1056 485 1056 588 q 1016 290 1056 381 q 909 132 976 200 q 751 25 842 64 q 556 -14 660 -14 q 362 25 453 -14 q 203 132 271 64 q 97 290 136 200 q 57 485 57 381 q 97 678 57 588 q 203 838 136 769 q 362 944 271 906 q 556 983 453 983 m 556 8 q 741 46 654 8 q 892 148 828 83 q 994 299 957 213 q 1032 485 1032 386 q 994 670 1032 583 q 892 822 957 757 q 741 924 828 886 q 556 961 654 961 q 370 924 457 961 q 219 822 283 886 q 117 670 154 757 q 79 485 79 583 q 117 299 79 386 q 219 148 154 213 q 370 46 283 83 q 556 8 457 8 m 514 410 q 646 288 567 349 q 829 197 725 228 l 710 197 q 653 226 688 197 q 582 297 618 256 q 513 383 546 338 q 461 463 481 429 q 452 477 456 469 q 444 493 449 485 l 444 197 l 389 197 l 389 771 l 553 771 q 724 722 671 771 q 778 581 778 672 q 763 495 778 532 q 723 434 747 458 q 667 397 699 410 q 604 385 636 385 q 514 410 556 385 m 444 507 q 504 436 467 460 q 582 413 542 413 q 633 423 608 413 q 676 454 657 433 q 706 506 694 475 q 718 579 718 538 q 673 722 718 679 q 553 764 628 764 l 485 764 q 451 747 457 761 q 444 697 444 733 l 444 507 z "},"°":{"ha":289,"x_min":35,"x_max":254,"o":"m 144 983 q 222 951 189 983 q 254 875 254 919 q 222 797 254 829 q 144 765 189 765 q 67 797 99 765 q 35 875 35 829 q 67 951 35 919 q 144 983 99 983 m 144 790 q 204 815 179 790 q 229 875 229 839 q 204 934 229 910 q 144 958 179 958 q 84 934 108 958 q 60 875 60 910 q 84 815 60 839 q 144 790 108 790 z "},"²":{"ha":313,"x_min":38,"x_max":267,"o":"m 267 878 q 247 810 267 840 q 197 752 226 779 q 137 701 168 725 q 83 656 106 678 l 264 656 l 264 608 l 38 608 l 38 611 q 74 658 44 629 q 135 724 103 688 q 194 804 168 761 q 219 893 219 847 q 196 947 219 926 q 140 968 172 968 q 92 955 117 968 q 47 913 67 942 l 42 917 q 97 969 65 953 q 158 986 128 986 q 234 957 201 986 q 267 878 267 928 z "},"³":{"ha":351,"x_min":38,"x_max":306,"o":"m 165 842 q 231 831 204 842 q 274 803 257 819 q 298 766 290 786 q 306 728 306 746 q 294 672 306 696 q 262 633 282 649 q 217 608 242 617 q 165 600 192 600 q 90 619 125 600 q 38 678 54 638 l 42 681 q 86 632 57 649 q 147 615 115 615 q 221 643 188 615 q 254 726 254 671 q 222 808 254 782 q 149 833 190 833 l 149 838 l 257 940 l 69 940 l 69 985 l 278 985 l 278 950 l 165 842 z "},"·":{"ha":179,"x_min":28,"x_max":150,"o":"m 89 483 q 133 466 115 483 q 150 422 150 449 q 133 379 150 397 q 89 361 115 361 q 46 379 64 361 q 28 422 28 397 q 46 466 28 449 q 89 483 64 483 z "},"¸":{"ha":42,"x_min":-67,"x_max":174,"o":"m -3 -85 q 80 -87 46 -79 q 135 -114 114 -96 q 165 -158 156 -132 q 174 -212 174 -183 q 135 -308 174 -268 q 32 -349 97 -349 q -67 -325 -15 -349 l -67 -262 q -12 -308 -40 -293 q 39 -322 15 -322 q 92 -298 71 -322 q 113 -222 113 -274 q 77 -131 113 -161 q -28 -110 42 -100 l -35 -101 l 15 15 l 33 14 l -3 -85 z "},"¹":{"ha":151,"x_min":50,"x_max":100,"o":"m 100 993 l 100 608 l 50 608 l 50 958 l 100 993 z "},"º":{"ha":436,"x_min":46,"x_max":390,"o":"m 218 993 q 313 964 275 993 q 371 892 351 935 q 390 797 390 849 q 371 703 390 746 q 313 631 351 660 q 218 601 275 601 q 123 631 161 601 q 65 703 85 660 q 46 797 46 746 q 65 892 46 849 q 123 964 85 935 q 218 993 161 993 m 243 613 q 303 638 281 611 q 333 704 325 664 q 335 792 342 744 q 311 882 329 840 q 263 952 293 924 q 193 982 233 981 q 134 957 157 983 q 103 890 111 931 q 99 802 94 850 q 122 713 104 754 q 171 643 140 672 q 243 613 201 614 z "},"»":{"ha":288,"x_min":36,"x_max":251,"o":"m 163 422 l 61 279 l 36 279 l 99 422 l 36 565 l 61 565 l 163 422 m 251 422 l 149 279 l 124 279 l 188 422 l 124 565 l 149 565 l 251 422 z "},"¿":{"ha":485,"x_min":28,"x_max":569,"o":"m 389 633 q 344 651 363 633 q 326 696 326 669 q 344 739 326 721 q 389 757 363 757 q 432 739 414 757 q 450 696 450 721 q 432 651 450 669 q 389 633 414 633 m 569 -53 q 513 -137 546 -101 q 442 -195 481 -172 q 363 -229 404 -218 q 279 -240 321 -240 q 184 -225 229 -240 q 104 -179 139 -210 q 49 -106 69 -149 q 28 -6 28 -62 q 54 117 28 68 q 121 206 81 167 q 207 281 161 246 q 293 358 253 315 q 360 458 333 401 q 386 597 386 514 l 397 597 q 376 444 397 508 q 324 331 356 381 q 256 243 293 282 q 188 165 219 204 q 136 83 157 126 q 115 -18 115 39 q 131 -99 115 -62 q 175 -160 147 -135 q 240 -198 203 -185 q 317 -211 276 -211 q 449 -173 383 -211 q 564 -47 515 -135 l 569 -53 z "},"À":{"ha":714,"x_min":21,"x_max":707,"o":"m 364 1071 l 158 1265 l 214 1314 l 369 1075 l 364 1071 m 603 1 l 497 294 l 336 90 q 244 9 292 35 q 154 -17 197 -17 q 86 1 117 -17 q 38 52 56 19 q 21 131 21 85 q 43 232 21 176 l 351 990 l 707 1 l 603 1 m 492 310 l 303 832 l 85 299 q 65 205 64 249 q 84 129 67 161 q 132 78 101 97 q 200 60 163 60 q 288 85 242 60 q 379 167 335 110 l 492 310 z "},"Á":{"ha":714,"x_min":21,"x_max":707,"o":"m 332 1071 l 326 1075 l 482 1314 l 538 1265 l 332 1071 m 603 1 l 497 294 l 336 90 q 244 9 292 35 q 154 -17 197 -17 q 86 1 117 -17 q 38 52 56 19 q 21 131 21 85 q 43 232 21 176 l 351 990 l 707 1 l 603 1 m 492 310 l 303 832 l 85 299 q 65 205 64 249 q 84 129 67 161 q 132 78 101 97 q 200 60 163 60 q 288 85 242 60 q 379 167 335 110 l 492 310 z "},"Ã":{"ha":714,"x_min":21,"x_max":707,"o":"m 544 1142 q 514 1087 533 1101 q 469 1072 494 1072 q 419 1082 446 1072 q 364 1103 392 1092 q 310 1125 336 1115 q 263 1135 285 1135 q 228 1124 243 1135 q 206 1085 214 1113 q 204 1101 203 1094 q 207 1114 206 1107 q 238 1169 218 1154 q 282 1183 257 1183 q 333 1174 306 1183 q 388 1152 360 1164 q 441 1131 415 1140 q 489 1121 467 1121 q 524 1132 508 1121 q 547 1171 539 1143 q 544 1142 549 1156 m 603 1 l 497 294 l 336 90 q 244 9 292 35 q 154 -17 197 -17 q 86 1 117 -17 q 38 52 56 19 q 21 131 21 85 q 43 232 21 176 l 351 990 l 707 1 l 603 1 m 492 310 l 303 832 l 85 299 q 65 205 64 249 q 84 129 67 161 q 132 78 101 97 q 200 60 163 60 q 288 85 242 60 q 379 167 335 110 l 492 310 z "},"Ä":{"ha":714,"x_min":21,"x_max":707,"o":"m 267 1082 q 234 1095 247 1082 q 221 1128 221 1108 q 234 1160 221 1147 q 267 1174 247 1174 q 299 1160 286 1174 q 313 1128 313 1147 q 299 1095 313 1108 q 267 1082 286 1082 m 422 1082 q 390 1095 403 1082 q 376 1128 376 1108 q 390 1160 376 1147 q 422 1174 403 1174 q 455 1160 442 1174 q 468 1128 468 1147 q 455 1095 468 1108 q 422 1082 442 1082 m 603 1 l 497 294 l 336 90 q 244 9 292 35 q 154 -17 197 -17 q 86 1 117 -17 q 38 52 56 19 q 21 131 21 85 q 43 232 21 176 l 351 990 l 707 1 l 603 1 m 492 310 l 303 832 l 85 299 q 65 205 64 249 q 84 129 67 161 q 132 78 101 97 q 200 60 163 60 q 288 85 242 60 q 379 167 335 110 l 492 310 z "},"Å":{"ha":714,"x_min":21,"x_max":707,"o":"m 350 1025 q 274 1056 306 1025 q 243 1132 243 1088 q 274 1208 243 1176 q 350 1239 306 1239 q 426 1208 394 1239 q 457 1132 457 1176 q 426 1056 457 1088 q 350 1025 394 1025 m 350 1211 q 293 1188 317 1211 q 269 1132 269 1165 q 293 1075 269 1099 q 350 1051 317 1051 q 406 1075 383 1051 q 429 1132 429 1099 q 406 1188 429 1165 q 350 1211 383 1211 m 603 1 l 497 294 l 336 90 q 244 9 292 35 q 154 -17 197 -17 q 86 1 117 -17 q 38 52 56 19 q 21 131 21 85 q 43 232 21 176 l 351 990 l 707 1 l 603 1 m 492 310 l 303 832 l 85 299 q 65 205 64 249 q 84 129 67 161 q 132 78 101 97 q 200 60 163 60 q 288 85 242 60 q 379 167 335 110 l 492 310 z "},"Æ":{"ha":1103,"x_min":11,"x_max":1100,"o":"m 1100 14 l 1100 1 l 510 1 l 510 257 l 314 74 q 228 15 271 33 q 149 -3 186 -3 q 74 17 107 -3 q 26 72 42 38 q 17 152 11 106 q 56 251 22 199 l 510 972 l 1082 972 l 1082 960 l 733 960 q 668 956 693 960 q 629 944 643 953 q 610 917 615 935 q 604 869 606 899 l 604 507 l 939 507 l 939 496 l 604 496 l 604 104 q 610 57 606 75 q 629 30 615 39 q 668 17 643 21 q 733 14 693 14 l 1100 14 m 510 275 l 510 947 l 104 308 q 69 217 74 261 q 81 138 65 172 q 129 84 97 104 q 203 64 161 64 q 281 82 239 64 q 367 140 322 100 l 510 275 z "},"Ç":{"ha":911,"x_min":46,"x_max":892,"o":"m 892 358 q 837 202 875 269 q 747 88 799 135 q 631 17 694 42 q 503 -12 568 -8 l 475 -87 q 558 -90 524 -82 q 613 -115 592 -97 q 642 -159 633 -133 q 651 -214 651 -185 q 613 -310 651 -269 q 510 -350 575 -350 q 411 -326 463 -350 l 411 -264 q 465 -310 438 -294 q 517 -325 493 -325 q 569 -300 549 -325 q 590 -225 590 -275 q 555 -132 590 -162 q 450 -111 519 -101 l 443 -103 l 482 -14 q 323 15 401 -15 q 183 106 244 44 q 83 260 121 167 q 46 476 46 353 q 85 706 46 610 q 190 865 124 803 q 341 957 256 928 q 519 986 426 986 q 669 968 594 986 q 814 917 743 950 l 793 874 q 641 940 718 918 q 489 961 564 961 q 340 936 410 961 q 217 861 269 911 q 135 738 165 811 q 104 567 104 664 q 140 338 104 435 q 233 179 175 242 q 364 87 290 117 q 514 57 438 57 q 637 76 576 57 q 747 135 697 96 q 834 230 797 174 q 886 360 871 286 l 892 358 z "},"È":{"ha":676,"x_min":83,"x_max":672,"o":"m 413 1071 l 206 1265 l 263 1314 l 417 1075 l 413 1071 m 672 13 l 672 1 l 83 1 l 83 971 l 656 971 l 656 958 l 306 958 q 241 956 265 958 q 203 943 217 953 q 184 916 189 933 q 178 869 179 899 l 178 507 l 511 507 l 511 494 l 178 494 l 178 103 q 184 56 179 74 q 203 29 189 39 q 241 17 217 19 q 306 14 265 14 l 303 13 l 672 13 z "},"É":{"ha":676,"x_min":83,"x_max":672,"o":"m 390 1071 l 385 1075 l 540 1314 l 596 1265 l 390 1071 m 672 13 l 672 1 l 83 1 l 83 971 l 656 971 l 656 958 l 306 958 q 241 956 265 958 q 203 943 217 953 q 184 916 189 933 q 178 869 179 899 l 178 507 l 511 507 l 511 494 l 178 494 l 178 103 q 184 56 179 74 q 203 29 189 39 q 241 17 217 19 q 306 14 265 14 l 303 13 l 672 13 z "},"Ê":{"ha":676,"x_min":83,"x_max":672,"o":"m 263 1081 l 256 1086 l 413 1249 l 419 1249 l 574 1086 l 568 1079 l 415 1164 l 263 1081 m 672 13 l 672 1 l 83 1 l 83 971 l 656 971 l 656 958 l 306 958 q 241 956 265 958 q 203 943 217 953 q 184 916 189 933 q 178 869 179 899 l 178 507 l 511 507 l 511 494 l 178 494 l 178 103 q 184 56 179 74 q 203 29 189 39 q 241 17 217 19 q 306 14 265 14 l 303 13 l 672 13 z "},"Ë":{"ha":676,"x_min":83,"x_max":672,"o":"m 325 1082 q 293 1095 306 1082 q 281 1128 281 1108 q 293 1160 281 1147 q 325 1174 306 1174 q 358 1160 344 1174 q 371 1128 371 1147 q 358 1095 371 1108 q 325 1082 344 1082 m 481 1082 q 448 1095 461 1082 q 435 1128 435 1108 q 448 1160 435 1147 q 481 1174 461 1174 q 513 1160 500 1174 q 526 1128 526 1147 q 513 1095 526 1108 q 481 1082 500 1082 m 672 13 l 672 1 l 83 1 l 83 971 l 656 971 l 656 958 l 306 958 q 241 956 265 958 q 203 943 217 953 q 184 916 189 933 q 178 869 179 899 l 178 507 l 511 507 l 511 494 l 178 494 l 178 103 q 184 56 179 74 q 203 29 189 39 q 241 17 217 19 q 306 14 265 14 l 303 13 l 672 13 z "},"Ì":{"ha":260,"x_min":-58,"x_max":176,"o":"m 147 1071 l -58 1265 l -3 1314 l 153 1075 l 147 1071 m 82 1 l 82 971 l 176 971 l 176 1 l 82 1 z "},"Í":{"ha":261,"x_min":83,"x_max":324,"o":"m 118 1071 l 113 1075 l 268 1314 l 324 1265 l 118 1071 m 83 1 l 83 971 l 178 971 l 178 1 l 83 1 z "},"Î":{"ha":261,"x_min":-19,"x_max":299,"o":"m 299 1086 l 292 1079 l 139 1164 l -14 1081 l -19 1086 l 136 1249 l 144 1249 l 299 1086 m 83 1 l 83 971 l 178 971 l 178 1 l 83 1 z "},"Ï":{"ha":261,"x_min":0,"x_max":246,"o":"m 46 1174 q 78 1160 65 1174 q 92 1128 92 1147 q 78 1095 92 1108 q 46 1082 65 1082 q 13 1095 26 1082 q 0 1128 0 1108 q 13 1160 0 1147 q 46 1174 26 1174 m 201 1174 q 233 1160 221 1174 q 246 1128 246 1147 q 233 1095 246 1108 q 201 1082 221 1082 q 169 1095 182 1082 q 156 1128 156 1108 q 169 1160 156 1147 q 201 1174 182 1174 m 83 1 l 83 971 l 178 971 l 178 1 l 83 1 z "},"Ñ":{"ha":810,"x_min":83,"x_max":725,"o":"m 574 1142 q 543 1087 563 1101 q 499 1072 524 1072 q 448 1082 475 1072 q 393 1103 421 1092 q 340 1125 365 1115 q 292 1135 314 1135 q 258 1124 272 1135 q 235 1085 243 1113 q 233 1101 232 1094 q 236 1114 233 1107 q 267 1169 247 1154 q 311 1183 286 1183 q 362 1174 335 1183 q 416 1152 389 1164 q 469 1131 443 1140 q 517 1121 496 1121 q 551 1132 536 1121 q 575 1171 567 1143 q 574 1142 578 1156 m 725 971 l 725 -17 l 710 -17 l 99 857 l 99 1 l 83 1 l 83 971 l 135 971 l 710 158 l 710 971 l 725 971 z "},"Ò":{"ha":1021,"x_min":43,"x_max":978,"o":"m 472 1071 l 265 1265 l 322 1314 l 476 1075 l 472 1071 m 510 992 q 708 951 621 992 q 854 840 794 910 q 946 679 914 771 q 978 486 978 588 q 946 293 978 385 q 854 132 914 201 q 708 22 794 63 q 510 -19 621 -19 q 313 22 400 -19 q 166 132 226 63 q 74 293 106 201 q 43 486 43 385 q 74 679 43 588 q 166 840 106 771 q 313 951 226 910 q 510 992 400 992 m 592 19 q 742 54 681 17 q 840 156 804 92 q 885 303 875 219 q 883 474 896 386 q 835 645 871 561 q 742 797 799 729 q 607 907 685 864 q 432 953 529 950 q 283 918 344 956 q 185 816 221 881 q 137 669 149 751 q 137 499 125 586 q 183 326 149 411 q 276 175 218 242 q 413 65 333 108 q 592 19 492 22 z "},"Ó":{"ha":1021,"x_min":43,"x_max":978,"o":"m 486 1071 l 481 1075 l 635 1314 l 692 1265 l 486 1071 m 510 992 q 708 951 621 992 q 854 840 794 910 q 946 679 914 771 q 978 486 978 588 q 946 293 978 385 q 854 132 914 201 q 708 22 794 63 q 510 -19 621 -19 q 313 22 400 -19 q 166 132 226 63 q 74 293 106 201 q 43 486 43 385 q 74 679 43 588 q 166 840 106 771 q 313 951 226 910 q 510 992 400 992 m 592 19 q 742 54 681 17 q 840 156 804 92 q 885 303 875 219 q 883 474 896 386 q 835 645 871 561 q 742 797 799 729 q 607 907 685 864 q 432 953 529 950 q 283 918 344 956 q 185 816 221 881 q 137 669 149 751 q 137 499 125 586 q 183 326 149 411 q 276 175 218 242 q 413 65 333 108 q 592 19 492 22 z "},"Ô":{"ha":1021,"x_min":43,"x_max":978,"o":"m 339 1081 l 333 1086 l 489 1249 l 497 1249 l 651 1086 l 644 1079 l 492 1164 l 339 1081 m 510 992 q 708 951 621 992 q 854 840 794 910 q 946 679 914 771 q 978 486 978 588 q 946 293 978 385 q 854 132 914 201 q 708 22 794 63 q 510 -19 621 -19 q 313 22 400 -19 q 166 132 226 63 q 74 293 106 201 q 43 486 43 385 q 74 679 43 588 q 166 840 106 771 q 313 951 226 910 q 510 992 400 992 m 592 19 q 742 54 681 17 q 840 156 804 92 q 885 303 875 219 q 883 474 896 386 q 835 645 871 561 q 742 797 799 729 q 607 907 685 864 q 432 953 529 950 q 283 918 344 956 q 185 816 221 881 q 137 669 149 751 q 137 499 125 586 q 183 326 149 411 q 276 175 218 242 q 413 65 333 108 q 592 19 492 22 z "},"Õ":{"ha":1021,"x_min":43,"x_max":978,"o":"m 674 1142 q 643 1087 663 1101 q 599 1072 624 1072 q 548 1082 575 1072 q 493 1103 521 1092 q 440 1125 465 1115 q 392 1135 414 1135 q 358 1124 372 1135 q 335 1085 343 1113 q 333 1101 332 1094 q 336 1114 333 1107 q 367 1169 347 1154 q 411 1183 386 1183 q 462 1174 435 1183 q 516 1152 489 1164 q 569 1131 543 1140 q 617 1121 596 1121 q 651 1132 636 1121 q 675 1171 667 1143 q 676 1155 678 1161 q 674 1142 675 1149 m 510 992 q 708 951 621 992 q 854 840 794 910 q 946 679 914 771 q 978 486 978 588 q 946 293 978 385 q 854 132 914 201 q 708 22 794 63 q 510 -19 621 -19 q 313 22 400 -19 q 166 132 226 63 q 74 293 106 201 q 43 486 43 385 q 74 679 43 588 q 166 840 106 771 q 313 951 226 910 q 510 992 400 992 m 592 19 q 742 54 681 17 q 840 156 804 92 q 885 303 875 219 q 883 474 896 386 q 835 645 871 561 q 742 797 799 729 q 607 907 685 864 q 432 953 529 950 q 283 918 344 956 q 185 816 221 881 q 137 669 149 751 q 137 499 125 586 q 183 326 149 411 q 276 175 218 242 q 413 65 333 108 q 592 19 492 22 z "},"Ö":{"ha":1021,"x_min":43,"x_max":978,"o":"m 431 1082 q 398 1095 411 1082 q 385 1128 385 1108 q 398 1160 385 1147 q 431 1174 411 1174 q 463 1160 450 1174 q 476 1128 476 1147 q 463 1095 476 1108 q 431 1082 450 1082 m 586 1082 q 553 1095 567 1082 q 540 1128 540 1108 q 553 1160 540 1147 q 586 1174 567 1174 q 619 1160 606 1174 q 632 1128 632 1147 q 619 1095 632 1108 q 586 1082 606 1082 m 510 992 q 708 951 621 992 q 854 840 794 910 q 946 679 914 771 q 978 486 978 588 q 946 293 978 385 q 854 132 914 201 q 708 22 794 63 q 510 -19 621 -19 q 313 22 400 -19 q 166 132 226 63 q 74 293 106 201 q 43 486 43 385 q 74 679 43 588 q 166 840 106 771 q 313 951 226 910 q 510 992 400 992 m 592 19 q 742 54 681 17 q 840 156 804 92 q 885 303 875 219 q 883 474 896 386 q 835 645 871 561 q 742 797 799 729 q 607 907 685 864 q 432 953 529 950 q 283 918 344 956 q 185 816 221 881 q 137 669 149 751 q 137 499 125 586 q 183 326 149 411 q 276 175 218 242 q 413 65 333 108 q 592 19 492 22 z "},"×":{"ha":396,"x_min":36,"x_max":360,"o":"m 213 485 q 226 472 217 481 q 251 446 235 463 q 294 403 268 429 q 360 338 321 376 l 344 324 q 280 388 306 363 q 238 431 254 414 q 211 456 221 447 q 197 469 201 465 l 51 324 l 36 338 q 101 403 75 376 q 143 446 126 429 q 169 472 160 463 q 183 485 179 481 q 169 498 179 489 q 143 524 160 507 q 101 567 126 540 q 36 632 75 593 l 51 646 l 197 500 q 211 513 201 504 q 238 539 221 522 q 280 581 254 556 q 344 646 306 607 l 360 632 q 294 567 321 593 q 251 524 268 540 q 226 498 235 507 q 213 485 217 489 z "},"Ø":{"ha":1021,"x_min":43,"x_max":978,"o":"m 769 921 q 924 738 869 851 q 978 492 978 624 q 946 299 978 390 q 854 138 914 207 q 708 27 794 68 q 510 -14 621 -14 q 376 4 438 -14 q 264 54 315 22 l 131 -175 l 113 -175 l 250 63 q 97 244 150 131 q 43 492 43 358 q 74 683 43 592 q 166 845 106 775 q 313 956 226 915 q 510 997 400 997 q 644 979 582 997 q 757 929 706 961 l 890 1158 l 908 1158 l 769 921 m 432 958 q 278 921 342 961 q 179 812 215 881 q 133 656 143 743 q 140 478 124 568 q 197 301 156 388 q 303 151 238 215 l 706 840 q 583 924 651 893 q 432 958 515 956 m 592 25 q 746 63 683 22 q 844 170 808 103 q 888 325 879 238 q 879 503 896 413 q 822 678 863 593 q 717 829 781 764 l 314 140 q 438 58 368 89 q 592 25 507 28 z "},"Ù":{"ha":832,"x_min":71,"x_max":763,"o":"m 447 1071 l 240 1265 l 297 1314 l 451 1075 l 447 1071 m 761 378 q 733 212 763 283 q 656 92 704 140 q 544 21 607 44 q 417 -3 482 -3 q 289 21 351 -3 q 178 92 226 44 q 100 212 129 140 q 71 378 71 283 l 71 971 l 163 971 l 163 378 q 186 231 163 293 q 249 128 210 169 q 340 67 289 88 q 443 47 390 47 q 553 69 499 47 q 649 132 607 90 q 718 235 692 174 q 744 378 744 297 l 744 971 l 761 971 l 761 378 z "},"Ú":{"ha":832,"x_min":71,"x_max":763,"o":"m 414 1071 l 408 1075 l 564 1314 l 619 1265 l 414 1071 m 761 378 q 733 212 763 283 q 656 92 704 140 q 544 21 607 44 q 417 -3 482 -3 q 289 21 351 -3 q 178 92 226 44 q 100 212 129 140 q 71 378 71 283 l 71 971 l 163 971 l 163 378 q 186 231 163 293 q 249 128 210 169 q 340 67 289 88 q 443 47 390 47 q 553 69 499 47 q 649 132 607 90 q 718 235 692 174 q 744 378 744 297 l 744 971 l 761 971 l 761 378 z "},"Û":{"ha":832,"x_min":71,"x_max":763,"o":"m 315 1081 l 310 1086 l 465 1249 l 474 1249 l 628 1086 l 621 1079 l 468 1164 l 315 1081 m 761 378 q 733 212 763 283 q 656 92 704 140 q 544 21 607 44 q 417 -3 482 -3 q 289 21 351 -3 q 178 92 226 44 q 100 212 129 140 q 71 378 71 283 l 71 971 l 163 971 l 163 378 q 186 231 163 293 q 249 128 210 169 q 340 67 289 88 q 443 47 390 47 q 553 69 499 47 q 649 132 607 90 q 718 235 692 174 q 744 378 744 297 l 744 971 l 761 971 l 761 378 z "},"Ü":{"ha":832,"x_min":71,"x_max":763,"o":"m 375 1082 q 342 1095 356 1082 q 329 1128 329 1108 q 342 1160 329 1147 q 375 1174 356 1174 q 408 1160 394 1174 q 421 1128 421 1147 q 408 1095 421 1108 q 375 1082 394 1082 m 529 1082 q 497 1095 510 1082 q 485 1128 485 1108 q 497 1160 485 1147 q 529 1174 510 1174 q 562 1160 549 1174 q 575 1128 575 1147 q 562 1095 575 1108 q 529 1082 549 1082 m 761 378 q 733 212 763 283 q 656 92 704 140 q 544 21 607 44 q 417 -3 482 -3 q 289 21 351 -3 q 178 92 226 44 q 100 212 129 140 q 71 378 71 283 l 71 971 l 163 971 l 163 378 q 186 231 163 293 q 249 128 210 169 q 340 67 289 88 q 443 47 390 47 q 553 69 499 47 q 649 132 607 90 q 718 235 692 174 q 744 378 744 297 l 744 971 l 761 971 l 761 378 z "},"Ý":{"ha":715,"x_min":-4,"x_max":717,"o":"m 379 1071 l 374 1075 l 529 1314 l 585 1265 l 379 1071 m 422 436 l 421 436 l 421 1 l 328 1 l 328 436 l 326 436 l -4 971 l 101 971 l 414 476 l 700 971 l 717 971 l 421 457 l 421 442 l 422 436 z "},"ß":{"ha":774,"x_min":78,"x_max":744,"o":"m 376 522 q 403 474 376 490 q 472 445 431 457 q 560 420 513 433 q 649 383 608 407 q 717 317 690 358 q 744 208 744 276 q 722 113 744 157 q 662 38 699 69 q 578 -10 625 7 q 481 -28 531 -28 q 353 8 414 -28 q 256 125 292 43 l 268 131 q 351 29 300 60 q 457 -1 403 -1 q 528 12 494 -1 q 590 49 563 25 q 633 106 617 72 q 649 179 649 139 q 627 274 649 238 q 573 335 606 311 q 503 377 540 360 q 433 413 465 394 q 378 456 400 432 q 357 521 357 481 q 381 576 357 553 q 433 626 404 599 q 486 693 463 654 q 510 796 510 732 q 496 868 510 836 q 459 922 482 900 q 407 957 436 944 q 346 969 378 969 q 283 955 314 969 q 227 909 251 940 q 188 828 203 878 q 172 708 172 778 l 172 0 l 78 0 l 78 731 q 104 843 78 796 q 172 922 131 890 q 266 969 214 954 q 369 985 318 985 q 454 974 414 985 q 526 942 494 963 q 576 889 557 921 q 594 815 594 857 q 578 732 594 767 q 538 672 563 697 q 485 629 514 647 q 433 595 457 611 q 392 563 408 579 q 376 522 376 546 z "},"à":{"ha":665,"x_min":39,"x_max":593,"o":"m 347 833 l 142 1029 l 197 1078 l 351 839 l 347 833 m 593 0 l 588 0 l 501 86 l 501 189 q 461 100 488 138 q 401 38 435 63 q 328 1 367 13 q 251 -11 290 -11 q 172 2 210 -11 q 104 42 133 15 q 57 108 75 68 q 39 199 39 147 q 75 318 39 269 q 174 397 111 367 q 320 440 236 426 q 501 454 404 454 l 501 543 q 485 627 501 592 q 443 686 469 663 q 381 722 417 710 q 308 733 346 733 q 198 708 253 733 q 103 635 143 683 l 89 647 q 141 696 111 674 q 206 733 171 718 q 277 758 240 749 q 350 767 314 767 q 441 751 397 767 q 519 700 485 735 q 573 610 553 665 q 593 475 593 554 l 593 0 m 128 211 q 141 126 128 163 q 176 67 154 90 q 226 31 197 43 q 286 19 256 19 q 363 37 324 19 q 432 89 401 54 q 482 176 463 124 q 501 296 501 228 l 501 438 q 354 429 422 440 q 235 391 286 418 q 156 319 185 364 q 128 211 128 275 z "},"á":{"ha":665,"x_min":39,"x_max":593,"o":"m 314 833 l 308 839 l 464 1078 l 519 1029 l 314 833 m 593 475 l 593 0 l 588 0 l 501 86 l 501 189 q 461 100 488 138 q 401 38 435 63 q 328 1 367 13 q 251 -11 290 -11 q 172 2 210 -11 q 104 42 133 15 q 57 108 75 68 q 39 199 39 147 q 75 318 39 269 q 174 397 111 367 q 320 440 236 426 q 501 454 404 454 l 501 543 q 485 627 501 592 q 443 686 469 663 q 381 722 417 710 q 308 733 346 733 q 198 708 253 733 q 103 635 143 683 l 89 647 q 141 696 111 674 q 206 733 171 718 q 277 758 240 749 q 350 767 314 767 q 441 751 397 767 q 519 700 485 735 q 573 610 553 665 q 593 475 593 554 m 128 211 q 141 126 128 163 q 176 67 154 90 q 226 31 197 43 q 286 19 256 19 q 363 37 324 19 q 432 89 401 54 q 482 176 463 124 q 501 296 501 228 l 501 438 q 354 429 422 440 q 235 391 286 418 q 156 319 185 364 q 128 211 128 275 z "},"â":{"ha":665,"x_min":39,"x_max":593,"o":"m 189 843 l 182 850 l 339 1013 l 346 1013 l 500 850 l 494 843 l 342 928 l 189 843 m 593 475 l 593 0 l 588 0 l 501 86 l 501 189 q 461 100 488 138 q 401 38 435 63 q 328 1 367 13 q 251 -11 290 -11 q 172 2 210 -11 q 104 42 133 15 q 57 108 75 68 q 39 199 39 147 q 75 318 39 269 q 174 397 111 367 q 320 440 236 426 q 501 454 404 454 l 501 543 q 485 627 501 592 q 443 686 469 663 q 381 722 417 710 q 308 733 346 733 q 198 708 253 733 q 103 635 143 683 l 89 647 q 141 696 111 674 q 206 733 171 718 q 277 758 240 749 q 350 767 314 767 q 441 751 397 767 q 519 700 485 735 q 573 610 553 665 q 593 475 593 554 m 128 211 q 141 126 128 163 q 176 67 154 90 q 226 31 197 43 q 286 19 256 19 q 363 37 324 19 q 432 89 401 54 q 482 176 463 124 q 501 296 501 228 l 501 438 q 354 429 422 440 q 235 391 286 418 q 156 319 185 364 q 128 211 128 275 z "},"ã":{"ha":665,"x_min":39,"x_max":593,"o":"m 510 917 q 479 862 499 876 q 435 847 460 847 q 384 857 411 847 q 329 878 357 867 q 276 900 301 890 q 228 910 250 910 q 194 899 208 910 q 171 860 179 888 q 174 888 169 875 q 204 942 185 928 q 249 957 224 957 q 299 947 272 957 q 354 926 326 938 q 408 904 382 914 q 456 894 433 894 q 490 906 475 894 q 513 944 504 917 q 513 929 514 935 q 510 917 513 924 m 593 475 l 593 0 l 588 0 l 501 86 l 501 189 q 461 100 488 138 q 401 38 435 63 q 328 1 367 13 q 251 -11 290 -11 q 172 2 210 -11 q 104 42 133 15 q 57 108 75 68 q 39 199 39 147 q 75 318 39 269 q 174 397 111 367 q 320 440 236 426 q 501 454 404 454 l 501 543 q 485 627 501 592 q 443 686 469 663 q 381 722 417 710 q 308 733 346 733 q 198 708 253 733 q 103 635 143 683 l 89 647 q 141 696 111 674 q 206 733 171 718 q 277 758 240 749 q 350 767 314 767 q 441 751 397 767 q 519 700 485 735 q 573 610 553 665 q 593 475 593 554 m 128 211 q 141 126 128 163 q 176 67 154 90 q 226 31 197 43 q 286 19 256 19 q 363 37 324 19 q 432 89 401 54 q 482 176 463 124 q 501 296 501 228 l 501 438 q 354 429 422 440 q 235 391 286 418 q 156 319 185 364 q 128 211 128 275 z "},"ä":{"ha":665,"x_min":39,"x_max":593,"o":"m 264 844 q 231 858 244 844 q 218 890 218 871 q 231 924 218 910 q 264 938 244 938 q 297 924 283 938 q 310 890 310 910 q 297 858 310 871 q 264 844 283 844 m 419 844 q 387 858 400 844 q 374 890 374 871 q 387 924 374 910 q 419 938 400 938 q 452 924 439 938 q 465 890 465 910 q 452 858 465 871 q 419 844 439 844 m 593 475 l 593 0 l 588 0 l 501 86 l 501 189 q 461 100 488 138 q 401 38 435 63 q 328 1 367 13 q 251 -11 290 -11 q 172 2 210 -11 q 104 42 133 15 q 57 108 75 68 q 39 199 39 147 q 75 318 39 269 q 174 397 111 367 q 320 440 236 426 q 501 454 404 454 l 501 543 q 485 627 501 592 q 443 686 469 663 q 381 722 417 710 q 308 733 346 733 q 198 708 253 733 q 103 635 143 683 l 89 647 q 141 696 111 674 q 206 733 171 718 q 277 758 240 749 q 350 767 314 767 q 441 751 397 767 q 519 700 485 735 q 573 610 553 665 q 593 475 593 554 m 128 211 q 141 126 128 163 q 176 67 154 90 q 226 31 197 43 q 286 19 256 19 q 363 37 324 19 q 432 89 401 54 q 482 176 463 124 q 501 296 501 228 l 501 438 q 354 429 422 440 q 235 391 286 418 q 156 319 185 364 q 128 211 128 275 z "},"å":{"ha":665,"x_min":39,"x_max":593,"o":"m 342 789 q 266 819 297 789 q 235 894 235 850 q 266 970 235 939 q 342 1001 297 1001 q 417 970 386 1001 q 449 894 449 939 q 417 819 449 850 q 342 789 386 789 m 342 975 q 285 951 308 975 q 261 894 261 928 q 285 839 261 863 q 342 815 308 815 q 398 839 375 815 q 421 894 421 863 q 398 951 421 928 q 342 975 375 975 m 593 475 l 593 0 l 588 0 l 501 86 l 501 189 q 461 100 488 138 q 401 38 435 63 q 328 1 367 13 q 251 -11 290 -11 q 172 2 210 -11 q 104 42 133 15 q 57 108 75 68 q 39 199 39 147 q 75 318 39 269 q 174 397 111 367 q 320 440 236 426 q 501 454 404 454 l 501 543 q 485 627 501 592 q 443 686 469 663 q 381 722 417 710 q 308 733 346 733 q 198 708 253 733 q 103 635 143 683 l 89 647 q 141 696 111 674 q 206 733 171 718 q 277 758 240 749 q 350 767 314 767 q 441 751 397 767 q 519 700 485 735 q 573 610 553 665 q 593 475 593 554 m 128 211 q 141 126 128 163 q 176 67 154 90 q 226 31 197 43 q 286 19 256 19 q 363 37 324 19 q 432 89 401 54 q 482 176 463 124 q 501 296 501 228 l 501 438 q 354 429 422 440 q 235 391 286 418 q 156 319 185 364 q 128 211 128 275 z "},"æ":{"ha":1250,"x_min":39,"x_max":1218,"o":"m 1218 285 q 1168 153 1203 210 q 1087 60 1133 97 q 985 3 1040 22 q 874 -15 931 -15 q 780 -1 826 -15 q 693 40 733 13 q 620 107 653 67 q 568 201 588 147 q 523 104 554 146 q 449 35 492 63 q 356 -6 407 7 q 253 -19 306 -19 q 172 -6 211 -19 q 104 33 133 7 q 57 99 75 60 q 39 190 39 139 q 75 308 39 260 q 174 388 111 357 q 320 431 236 418 q 501 444 404 444 l 501 535 q 485 619 501 583 q 443 678 469 654 q 382 713 417 701 q 310 725 347 725 q 198 700 253 725 q 103 625 143 675 l 89 638 q 205 724 133 690 q 351 757 276 757 q 426 747 390 757 q 494 713 463 736 q 548 654 525 690 q 583 567 571 618 q 642 653 607 617 q 717 712 676 689 q 801 746 757 735 q 890 757 846 757 q 994 742 944 757 q 1082 698 1043 726 q 1144 629 1121 669 q 1167 539 1167 589 l 610 540 q 604 506 607 525 q 601 471 601 488 q 628 286 601 363 q 697 161 654 210 q 795 90 740 113 q 908 68 850 68 q 1007 83 958 68 q 1097 127 1056 99 q 1169 196 1138 156 q 1214 286 1200 236 l 1218 285 m 1061 597 q 1046 657 1061 631 q 1006 702 1031 683 q 947 731 981 721 q 876 740 914 740 q 800 730 839 740 q 726 697 761 719 q 661 640 690 674 q 614 557 632 606 l 1013 557 q 1052 566 1043 557 q 1061 597 1061 575 m 282 1 q 449 74 396 -1 q 501 288 501 149 l 501 429 q 354 419 422 431 q 235 381 286 408 q 156 310 185 354 q 128 201 128 265 q 140 117 128 154 q 174 55 153 81 q 224 16 196 29 q 282 1 251 3 z "},"ç":{"ha":789,"x_min":46,"x_max":758,"o":"m 758 274 q 713 153 744 206 q 635 65 681 101 q 537 10 590 29 q 426 -14 483 -10 l 396 -96 q 478 -99 444 -90 q 533 -125 513 -107 q 563 -169 554 -143 q 572 -224 572 -194 q 534 -319 572 -279 q 431 -360 496 -360 q 332 -336 383 -360 l 332 -272 q 386 -318 358 -303 q 439 -333 414 -333 q 490 -308 469 -333 q 511 -233 511 -283 q 476 -141 511 -172 q 371 -121 442 -110 l 365 -112 l 407 -15 q 274 6 339 -17 q 159 76 210 29 q 77 196 108 124 q 46 365 46 268 q 80 538 46 464 q 169 663 114 613 q 294 738 224 713 q 435 763 364 763 q 598 726 521 763 q 722 615 675 690 l 674 579 q 546 697 624 658 q 389 735 468 735 q 287 717 336 735 q 200 666 238 700 q 140 581 163 632 q 117 463 117 531 q 147 280 117 358 q 225 149 176 201 q 335 71 274 97 q 460 44 396 44 q 552 59 507 44 q 636 102 597 74 q 706 174 675 131 q 754 274 736 217 l 758 274 z "},"è":{"ha":756,"x_min":47,"x_max":724,"o":"m 403 833 l 196 1029 l 253 1078 l 407 839 l 403 833 m 724 288 q 674 156 708 213 q 592 62 639 100 q 490 5 546 24 q 378 -14 435 -14 q 256 10 315 -14 q 150 80 196 33 q 76 197 104 126 q 47 363 47 268 q 78 543 47 468 q 159 666 110 618 q 271 736 208 714 q 396 758 333 758 q 499 743 450 758 q 588 700 549 728 q 649 631 626 672 q 672 540 672 590 l 115 542 q 110 508 113 528 q 107 472 107 489 q 133 288 107 364 q 203 163 160 211 q 301 92 246 114 q 414 69 356 69 q 512 85 464 69 q 601 128 560 100 q 674 197 643 157 q 719 288 706 238 l 724 288 m 567 599 q 551 658 567 632 q 511 703 536 685 q 453 732 486 722 q 382 742 419 742 q 306 731 344 742 q 231 698 267 721 q 167 641 196 675 q 119 558 138 607 l 519 558 q 558 568 550 560 q 567 599 567 576 z "},"é":{"ha":756,"x_min":47,"x_max":724,"o":"m 375 833 l 371 839 l 525 1078 l 582 1029 l 375 833 m 724 288 q 674 156 708 213 q 592 62 639 100 q 490 5 546 24 q 378 -14 435 -14 q 256 10 315 -14 q 150 80 196 33 q 76 197 104 126 q 47 363 47 268 q 78 543 47 468 q 159 666 110 618 q 271 736 208 714 q 396 758 333 758 q 499 743 450 758 q 588 700 549 728 q 649 631 626 672 q 672 540 672 590 l 115 542 q 110 508 113 528 q 107 472 107 489 q 133 288 107 364 q 203 163 160 211 q 301 92 246 114 q 414 69 356 69 q 512 85 464 69 q 601 128 560 100 q 674 197 643 157 q 719 288 706 238 l 724 288 m 567 599 q 551 658 567 632 q 511 703 536 685 q 453 732 486 722 q 382 742 419 742 q 306 731 344 742 q 231 698 267 721 q 167 641 196 675 q 119 558 138 607 l 519 558 q 558 568 550 560 q 567 599 567 576 z "},"ê":{"ha":756,"x_min":47,"x_max":724,"o":"m 226 843 l 221 850 l 376 1013 l 385 1013 l 538 850 l 532 843 l 379 928 l 226 843 m 724 288 q 674 156 708 213 q 592 62 639 100 q 490 5 546 24 q 378 -14 435 -14 q 256 10 315 -14 q 150 80 196 33 q 76 197 104 126 q 47 363 47 268 q 78 543 47 468 q 159 666 110 618 q 271 736 208 714 q 396 758 333 758 q 499 743 450 758 q 588 700 549 728 q 649 631 626 672 q 672 540 672 590 l 115 542 q 110 508 113 528 q 107 472 107 489 q 133 288 107 364 q 203 163 160 211 q 301 92 246 114 q 414 69 356 69 q 512 85 464 69 q 601 128 560 100 q 674 197 643 157 q 719 288 706 238 l 724 288 m 567 599 q 551 658 567 632 q 511 703 536 685 q 453 732 486 722 q 382 742 419 742 q 306 731 344 742 q 231 698 267 721 q 167 641 196 675 q 119 558 138 607 l 519 558 q 558 568 550 560 q 567 599 567 576 z "},"ë":{"ha":756,"x_min":47,"x_max":724,"o":"m 308 844 q 276 858 289 844 q 263 890 263 871 q 276 924 263 910 q 308 938 289 938 q 341 924 328 938 q 354 890 354 910 q 341 858 354 871 q 308 844 328 844 m 463 844 q 431 858 443 844 q 418 890 418 871 q 431 924 418 910 q 463 938 443 938 q 495 924 482 938 q 508 890 508 910 q 495 858 508 871 q 463 844 482 844 m 724 288 q 674 156 708 213 q 592 62 639 100 q 490 5 546 24 q 378 -14 435 -14 q 256 10 315 -14 q 150 80 196 33 q 76 197 104 126 q 47 363 47 268 q 78 543 47 468 q 159 666 110 618 q 271 736 208 714 q 396 758 333 758 q 499 743 450 758 q 588 700 549 728 q 649 631 626 672 q 672 540 672 590 l 115 542 q 110 508 113 528 q 107 472 107 489 q 133 288 107 364 q 203 163 160 211 q 301 92 246 114 q 414 69 356 69 q 512 85 464 69 q 601 128 560 100 q 674 197 643 157 q 719 288 706 238 l 724 288 m 567 599 q 551 658 567 632 q 511 703 536 685 q 453 732 486 722 q 382 742 419 742 q 306 731 344 742 q 231 698 267 721 q 167 641 196 675 q 119 558 138 607 l 519 558 q 558 568 550 560 q 567 599 567 576 z "},"ì":{"ha":247,"x_min":-60,"x_max":169,"o":"m 146 833 l -60 1029 l -4 1078 l 151 839 l 146 833 m 169 758 l 169 1 l 76 1 l 76 706 l 169 758 z "},"í":{"ha":247,"x_min":76,"x_max":300,"o":"m 94 833 l 89 839 l 244 1078 l 300 1029 l 94 833 m 76 706 l 169 758 l 169 1 l 76 1 l 76 706 z "},"î":{"ha":246,"x_min":-33,"x_max":285,"o":"m 285 850 l 278 843 l 125 928 l -28 843 l -33 850 l 122 1013 l 131 1013 l 285 850 m 76 706 l 169 758 l 169 1 l 76 1 l 76 706 z "},"ï":{"ha":247,"x_min":7,"x_max":253,"o":"m 99 890 q 85 858 99 871 q 53 844 72 844 q 20 858 33 844 q 7 890 7 871 q 20 924 7 910 q 53 938 33 938 q 85 924 72 938 q 99 890 99 910 m 208 938 q 240 924 228 938 q 253 890 253 910 q 240 858 253 871 q 208 844 228 844 q 176 858 189 844 q 163 890 163 871 q 176 924 163 910 q 208 938 189 938 m 76 706 l 169 758 l 169 1 l 76 1 l 76 706 z "},"ñ":{"ha":749,"x_min":75,"x_max":679,"o":"m 583 917 q 553 862 572 876 q 507 847 533 847 q 456 857 483 847 q 402 878 429 867 q 349 900 375 890 q 300 910 322 910 q 266 899 281 910 q 243 860 251 888 q 246 888 242 875 q 276 942 257 928 q 321 957 296 957 q 372 947 344 957 q 426 926 399 938 q 480 904 454 914 q 528 894 506 894 q 562 906 547 894 q 585 944 576 917 q 585 929 586 935 q 583 917 585 924 m 679 496 l 679 1 l 586 1 l 586 496 q 569 595 586 553 q 525 665 553 638 q 461 707 497 693 q 388 721 425 721 q 308 706 347 721 q 237 660 268 690 q 187 583 206 629 q 168 478 168 538 l 168 1 l 75 1 l 75 671 l 168 750 l 168 585 q 210 658 183 626 q 272 712 238 690 q 346 744 307 733 q 425 756 385 756 q 519 740 474 756 q 599 692 564 724 q 656 611 635 660 q 678 496 678 563 l 679 496 z "},"ò":{"ha":804,"x_min":44,"x_max":760,"o":"m 372 833 l 167 1029 l 222 1078 l 378 839 l 372 833 m 401 758 q 553 727 486 758 q 665 642 619 696 q 735 519 711 589 q 760 372 760 450 q 735 226 760 296 q 665 102 711 156 q 553 17 619 49 q 401 -14 486 -14 q 251 17 317 -14 q 139 102 185 49 q 69 226 93 156 q 44 372 44 296 q 69 519 44 450 q 139 642 93 589 q 251 727 185 696 q 401 758 317 758 m 128 456 q 156 264 126 346 q 232 128 185 182 q 338 47 279 74 q 454 19 396 19 q 537 35 497 19 q 607 81 576 50 q 656 157 638 111 q 675 263 674 203 q 648 461 678 375 q 569 606 618 547 q 461 694 521 664 q 343 725 401 725 q 263 709 301 725 q 194 660 224 693 q 147 576 165 626 q 128 456 129 525 z "},"ó":{"ha":804,"x_min":44,"x_max":760,"o":"m 353 833 l 347 839 l 501 1078 l 558 1029 l 353 833 m 401 758 q 553 727 486 758 q 665 642 619 696 q 735 519 711 589 q 760 372 760 450 q 735 226 760 296 q 665 102 711 156 q 553 17 619 49 q 401 -14 486 -14 q 251 17 317 -14 q 139 102 185 49 q 69 226 93 156 q 44 372 44 296 q 69 519 44 450 q 139 642 93 589 q 251 727 185 696 q 401 758 317 758 m 128 456 q 156 264 126 346 q 232 128 185 182 q 338 47 279 74 q 454 19 396 19 q 537 35 497 19 q 607 81 576 50 q 656 157 638 111 q 675 263 674 203 q 648 461 678 375 q 569 606 618 547 q 461 694 521 664 q 343 725 401 725 q 263 709 301 725 q 194 660 224 693 q 147 576 165 626 q 128 456 129 525 z "},"ô":{"ha":804,"x_min":44,"x_max":760,"o":"m 226 843 l 221 850 l 376 1013 l 385 1013 l 538 850 l 532 843 l 379 928 l 226 843 m 401 758 q 553 727 486 758 q 665 642 619 696 q 735 519 711 589 q 760 372 760 450 q 735 226 760 296 q 665 102 711 156 q 553 17 619 49 q 401 -14 486 -14 q 251 17 317 -14 q 139 102 185 49 q 69 226 93 156 q 44 372 44 296 q 69 519 44 450 q 139 642 93 589 q 251 727 185 696 q 401 758 317 758 m 128 456 q 156 264 126 346 q 232 128 185 182 q 338 47 279 74 q 454 19 396 19 q 537 35 497 19 q 607 81 576 50 q 656 157 638 111 q 675 263 674 203 q 648 461 678 375 q 569 606 618 547 q 461 694 521 664 q 343 725 401 725 q 263 709 301 725 q 194 660 224 693 q 147 576 165 626 q 128 456 129 525 z "},"õ":{"ha":804,"x_min":44,"x_max":760,"o":"m 571 917 q 540 862 560 876 q 496 847 521 847 q 445 857 472 847 q 390 878 418 867 q 337 900 363 890 q 289 910 311 910 q 255 899 269 910 q 232 860 240 888 q 230 875 229 869 q 233 888 231 881 q 264 942 244 928 q 308 957 283 957 q 359 947 332 957 q 414 926 386 938 q 467 904 442 914 q 515 894 493 894 q 549 906 535 894 q 572 944 564 917 q 574 929 575 935 q 571 917 572 924 m 401 758 q 553 727 486 758 q 665 642 619 696 q 735 519 711 589 q 760 372 760 450 q 735 226 760 296 q 665 102 711 156 q 553 17 619 49 q 401 -14 486 -14 q 251 17 317 -14 q 139 102 185 49 q 69 226 93 156 q 44 372 44 296 q 69 519 44 450 q 139 642 93 589 q 251 727 185 696 q 401 758 317 758 m 128 456 q 156 264 126 346 q 232 128 185 182 q 338 47 279 74 q 454 19 396 19 q 537 35 497 19 q 607 81 576 50 q 656 157 638 111 q 675 263 674 203 q 648 461 678 375 q 569 606 618 547 q 461 694 521 664 q 343 725 401 725 q 263 709 301 725 q 194 660 224 693 q 147 576 165 626 q 128 456 129 525 z "},"ö":{"ha":804,"x_min":44,"x_max":760,"o":"m 306 844 q 273 858 286 844 q 260 890 260 871 q 273 924 260 910 q 306 938 286 938 q 338 924 325 938 q 351 890 351 910 q 338 858 351 871 q 306 844 325 844 m 460 844 q 428 858 440 844 q 415 890 415 871 q 428 924 415 910 q 460 938 440 938 q 492 924 479 938 q 506 890 506 910 q 492 858 506 871 q 460 844 479 844 m 401 758 q 553 727 486 758 q 665 642 619 696 q 735 519 711 589 q 760 372 760 450 q 735 226 760 296 q 665 102 711 156 q 553 17 619 49 q 401 -14 486 -14 q 251 17 317 -14 q 139 102 185 49 q 69 226 93 156 q 44 372 44 296 q 69 519 44 450 q 139 642 93 589 q 251 727 185 696 q 401 758 317 758 m 128 456 q 156 264 126 346 q 232 128 185 182 q 338 47 279 74 q 454 19 396 19 q 537 35 497 19 q 607 81 576 50 q 656 157 638 111 q 675 263 674 203 q 648 461 678 375 q 569 606 618 547 q 461 694 521 664 q 343 725 401 725 q 263 709 301 725 q 194 660 224 693 q 147 576 165 626 q 128 456 129 525 z "},"ø":{"ha":804,"x_min":44,"x_max":760,"o":"m 601 699 q 719 559 678 646 q 760 372 760 472 q 735 226 760 296 q 665 102 711 156 q 553 17 619 49 q 401 -14 486 -14 q 301 -1 347 -14 q 215 36 254 13 l 111 -143 l 93 -143 l 203 44 q 85 184 125 97 q 44 372 44 271 q 69 518 44 449 q 139 641 93 588 q 251 726 185 694 q 401 757 317 757 q 503 744 457 757 q 589 707 550 731 l 694 886 l 711 886 l 601 699 m 128 454 q 158 253 125 338 q 243 114 190 168 l 546 632 q 447 701 500 678 q 343 725 394 725 q 263 708 301 725 q 194 658 224 692 q 147 574 165 625 q 128 454 129 524 m 254 103 q 351 39 299 60 q 454 18 403 18 q 537 33 497 18 q 607 79 576 49 q 656 156 638 110 q 675 261 674 201 q 644 472 678 382 q 557 621 610 561 l 254 103 z "},"ù":{"ha":750,"x_min":68,"x_max":672,"o":"m 399 833 l 193 1029 l 250 1078 l 404 839 l 399 833 m 672 758 l 672 1 l 579 36 l 579 232 q 542 124 568 169 q 479 47 515 78 q 401 1 443 17 q 315 -14 358 -14 q 224 3 268 -14 q 144 56 179 21 q 89 142 110 90 q 68 261 68 193 l 68 706 l 161 758 l 161 261 q 178 169 161 210 q 222 100 194 128 q 286 57 250 72 q 360 42 322 42 q 439 60 400 42 q 509 117 478 78 q 560 215 540 156 q 579 357 579 274 l 579 706 l 672 758 z "},"ú":{"ha":750,"x_min":68,"x_max":672,"o":"m 358 833 l 353 839 l 507 1078 l 564 1029 l 358 833 m 672 758 l 672 1 l 579 36 l 579 232 q 542 124 568 169 q 479 47 515 78 q 401 1 443 17 q 315 -14 358 -14 q 224 3 268 -14 q 144 56 179 21 q 89 142 110 90 q 68 261 68 193 l 68 706 l 161 758 l 161 261 q 178 169 161 210 q 222 100 194 128 q 286 57 250 72 q 360 42 322 42 q 439 60 400 42 q 509 117 478 78 q 560 215 540 156 q 579 357 579 274 l 579 706 l 672 758 z "},"û":{"ha":750,"x_min":68,"x_max":672,"o":"m 243 843 l 236 850 l 393 1013 l 400 1013 l 554 850 l 549 843 l 396 928 l 243 843 m 672 758 l 672 1 l 579 36 l 579 232 q 542 124 568 169 q 479 47 515 78 q 401 1 443 17 q 315 -14 358 -14 q 224 3 268 -14 q 144 56 179 21 q 89 142 110 90 q 68 261 68 193 l 68 706 l 161 758 l 161 261 q 178 169 161 210 q 222 100 194 128 q 286 57 250 72 q 360 42 322 42 q 439 60 400 42 q 509 117 478 78 q 560 215 540 156 q 579 357 579 274 l 579 706 l 672 758 z "},"ü":{"ha":750,"x_min":68,"x_max":672,"o":"m 317 844 q 285 858 297 844 q 272 890 272 871 q 285 924 272 910 q 317 938 297 938 q 349 924 336 938 q 363 890 363 910 q 349 858 363 871 q 317 844 336 844 m 472 844 q 440 858 453 844 q 426 890 426 871 q 440 924 426 910 q 472 938 453 938 q 505 924 492 938 q 518 890 518 910 q 505 858 518 871 q 472 844 492 844 m 672 758 l 672 1 l 579 36 l 579 232 q 542 124 568 169 q 479 47 515 78 q 401 1 443 17 q 315 -14 358 -14 q 224 3 268 -14 q 144 56 179 21 q 89 142 110 90 q 68 261 68 193 l 68 706 l 161 758 l 161 261 q 178 169 161 210 q 222 100 194 128 q 286 57 250 72 q 360 42 322 42 q 439 60 400 42 q 509 117 478 78 q 560 215 540 156 q 579 357 579 274 l 579 706 l 672 758 z "},"ý":{"ha":619,"x_min":-42,"x_max":608,"o":"m 328 833 l 322 839 l 476 1078 l 533 1029 l 328 833 m 608 750 l 325 50 q 278 -65 303 -3 q 213 -178 253 -126 q 113 -265 174 -231 q -42 -300 51 -300 l -42 -283 q 108 -246 50 -282 q 204 -159 167 -210 q 264 -51 242 -108 q 303 49 286 6 q 307 58 306 54 l 314 75 q 318 85 315 79 l 8 750 l 111 750 l 365 203 q 419 336 394 275 q 469 460 443 397 q 523 592 494 522 q 588 750 551 661 l 608 750 z "},"ÿ":{"ha":619,"x_min":-42,"x_max":608,"o":"m 275 844 q 243 858 256 844 q 231 890 231 871 q 243 924 231 910 q 275 938 256 938 q 308 924 294 938 q 321 890 321 910 q 308 858 321 871 q 275 844 294 844 m 431 844 q 398 858 411 844 q 385 890 385 871 q 398 924 385 910 q 431 938 411 938 q 463 924 450 938 q 476 890 476 910 q 463 858 476 871 q 431 844 450 844 m 608 750 l 325 50 q 278 -65 303 -3 q 213 -178 253 -126 q 113 -265 174 -231 q -42 -300 51 -300 l -42 -283 q 108 -246 50 -282 q 204 -159 167 -210 q 264 -51 242 -108 q 303 49 286 6 q 307 58 306 54 l 314 75 q 318 85 315 79 l 8 750 l 111 750 l 365 203 q 419 336 394 275 q 469 460 443 397 q 523 592 494 522 q 588 750 551 661 l 608 750 z "},"ı":{"ha":247,"x_min":76,"x_max":169,"o":"m 169 757 l 169 0 l 76 0 l 76 706 l 169 757 z "},"Œ":{"ha":1324,"x_min":42,"x_max":1321,"o":"m 1321 14 l 1321 1 l 731 1 l 511 3 q 306 42 394 1 q 159 151 218 83 q 71 305 100 218 q 42 483 42 392 q 71 661 42 574 q 159 817 100 749 q 306 928 218 886 q 511 972 393 971 l 1303 972 l 1303 960 l 953 960 q 888 956 913 960 q 850 944 864 953 q 831 917 836 935 q 825 869 826 899 l 825 507 l 1160 507 l 1160 496 l 825 496 l 825 104 q 831 57 826 75 q 850 30 836 39 q 888 17 864 21 q 953 14 913 14 l 1321 14 m 511 960 q 349 919 418 960 q 233 813 279 879 q 163 661 186 746 q 140 488 140 576 q 163 314 140 399 q 233 163 186 229 q 349 56 279 96 q 511 15 418 15 l 513 14 l 603 14 q 673 17 647 14 q 711 33 699 21 q 727 69 724 46 q 731 131 731 92 l 731 843 q 727 905 731 882 q 711 940 724 928 q 673 956 699 953 q 603 960 647 960 l 511 960 z "},"œ":{"ha":1403,"x_min":44,"x_max":1371,"o":"m 1371 285 q 1321 153 1356 210 q 1240 60 1286 97 q 1138 3 1193 22 q 1026 -15 1083 -15 q 934 -2 979 -15 q 849 37 889 11 q 776 102 808 63 q 724 194 744 142 q 601 44 683 103 q 401 -15 519 -15 q 251 16 317 -15 q 139 101 185 47 q 69 224 93 154 q 44 371 44 294 q 69 518 44 449 q 139 641 93 588 q 251 726 185 694 q 401 757 317 757 q 604 697 522 757 q 726 542 686 636 q 783 640 749 599 q 860 706 818 681 q 949 744 901 732 q 1043 757 996 757 q 1147 742 1097 757 q 1235 699 1196 726 q 1297 630 1274 671 q 1319 539 1319 589 l 763 540 q 758 506 760 525 q 756 471 756 488 q 756 448 756 460 q 757 425 756 436 l 757 418 l 758 401 l 758 394 q 797 245 768 307 q 867 144 825 183 q 959 86 908 104 q 1061 68 1010 68 q 1160 83 1111 68 q 1250 127 1208 99 q 1322 196 1292 156 q 1367 286 1353 236 l 1371 285 m 1215 597 q 1200 657 1215 631 q 1160 702 1185 683 q 1101 731 1135 721 q 1029 740 1067 740 q 953 730 992 740 q 878 697 914 719 q 814 640 843 674 q 767 557 785 606 l 1167 557 q 1206 566 1197 557 q 1215 597 1215 575 m 675 260 q 648 459 678 372 q 569 604 618 546 q 461 693 521 663 q 343 724 401 724 q 263 707 301 724 q 194 657 224 690 q 147 573 165 624 q 128 453 129 522 q 156 261 126 343 q 232 125 185 179 q 338 44 279 71 q 454 17 396 17 q 537 32 497 17 q 607 78 576 47 q 656 154 638 108 q 675 260 674 200 z "},"Š":{"ha":758,"x_min":24,"x_max":721,"o":"m 393 1079 l 239 1242 l 246 1249 l 399 1164 l 551 1247 l 557 1242 l 401 1079 l 393 1079 m 142 803 q 167 717 142 753 q 232 653 192 681 q 324 605 272 626 q 431 563 376 583 q 538 521 486 543 q 631 469 590 499 q 696 399 671 439 q 721 306 721 360 q 692 171 721 229 q 614 74 663 113 q 503 17 565 36 q 375 -3 440 -3 q 265 11 319 -3 q 163 53 210 25 q 80 122 117 81 q 24 219 43 164 l 61 236 q 117 140 82 181 q 196 73 151 100 q 290 33 240 46 q 389 19 339 19 q 494 35 443 19 q 585 80 546 50 q 647 153 624 110 q 671 254 671 197 q 628 349 671 311 q 519 417 585 386 q 379 474 454 447 q 239 536 304 501 q 131 619 174 571 q 88 740 88 668 q 113 847 88 801 q 178 925 138 893 q 272 973 219 957 q 381 989 325 989 q 469 978 425 989 q 550 947 513 968 q 618 892 588 925 q 665 814 649 858 l 632 796 q 581 874 611 842 q 515 928 551 907 q 440 960 479 950 q 361 969 400 969 q 278 958 318 969 q 208 924 239 946 q 160 872 178 903 q 142 803 142 842 z "},"š":{"ha":604,"x_min":29,"x_max":567,"o":"m 276 843 l 122 1006 l 129 1011 l 282 926 l 435 1011 l 440 1006 l 285 843 l 276 843 m 142 632 q 173 545 142 581 q 251 483 204 510 q 354 434 299 457 q 457 383 410 411 q 535 317 504 356 q 567 222 567 279 q 544 117 567 163 q 483 41 521 71 q 398 -4 446 11 q 300 -19 350 -19 q 215 -8 257 -19 q 137 24 174 3 q 72 78 100 46 q 29 154 44 111 l 68 168 q 110 92 83 125 q 171 38 138 60 q 241 4 204 15 q 315 -7 278 -7 q 388 5 353 -7 q 448 40 422 17 q 490 99 474 64 q 506 182 506 135 q 474 257 506 226 q 395 313 443 288 q 292 360 347 338 q 190 413 238 383 q 110 481 142 442 q 79 576 79 519 q 97 655 79 621 q 145 713 115 689 q 213 748 175 736 q 292 760 251 760 q 358 751 325 760 q 421 726 392 743 q 473 682 450 708 q 510 619 496 656 l 468 608 q 386 715 440 682 q 278 749 332 749 q 183 718 224 749 q 142 632 142 688 z "},"Ÿ":{"ha":715,"x_min":-4,"x_max":717,"o":"m 307 1082 q 274 1095 288 1082 q 261 1128 261 1108 q 274 1160 261 1147 q 307 1174 288 1174 q 339 1160 326 1174 q 351 1128 351 1147 q 339 1095 351 1108 q 307 1082 326 1082 m 461 1082 q 428 1095 442 1082 q 415 1128 415 1108 q 428 1160 415 1147 q 461 1174 442 1174 q 494 1160 481 1174 q 507 1128 507 1147 q 494 1095 507 1108 q 461 1082 481 1082 m 422 436 l 421 436 l 421 1 l 328 1 l 328 436 l 326 436 l -4 971 l 101 971 l 414 476 l 700 971 l 717 971 l 421 457 l 421 442 l 422 436 z "},"ž":{"ha":586,"x_min":15,"x_max":569,"o":"m 301 843 l 147 1006 l 153 1011 l 306 926 l 458 1011 l 465 1006 l 308 843 l 301 843 m 569 738 l 129 18 l 551 18 l 551 1 l 15 1 l 15 15 l 460 736 l 44 736 l 44 753 l 569 753 l 569 738 z "},"ˆ":{"ha":363,"x_min":22,"x_max":340,"o":"m 340 846 l 333 839 l 181 924 l 28 840 l 22 846 l 178 1008 l 186 1008 l 340 846 z "},"̀":{"ha":196,"x_min":-39,"x_max":172,"o":"m 172 836 l 167 831 l -39 1025 l 17 1074 l 172 836 z "},"́":{"ha":196,"x_min":24,"x_max":235,"o":"m 235 1025 l 29 831 l 24 836 l 179 1074 l 235 1025 z "},"̃":{"ha":396,"x_min":25,"x_max":371,"o":"m 368 942 q 367 913 371 926 q 336 858 356 872 q 292 843 317 843 q 241 853 268 843 q 187 874 214 863 q 133 896 160 886 q 86 906 107 906 q 51 894 67 906 q 28 856 36 883 q 29 885 25 871 q 60 940 40 925 q 104 954 79 954 q 155 944 128 954 q 209 923 182 935 q 263 901 236 911 q 310 892 289 892 q 344 903 329 892 q 368 942 360 914 z "},"̊":{"ha":281,"x_min":33,"x_max":246,"o":"m 140 999 q 215 967 185 999 q 246 892 246 936 q 215 816 246 847 q 140 785 185 785 q 65 816 96 785 q 33 892 33 847 q 65 967 33 936 q 140 999 96 999 m 140 811 q 196 835 172 811 q 219 892 219 858 q 196 948 219 925 q 140 971 172 971 q 83 948 107 971 q 60 892 60 925 q 83 835 60 858 q 140 811 107 811 z "},"̌":{"ha":299,"x_min":-10,"x_max":308,"o":"m 308 1001 l 151 839 l 144 839 l -10 1001 l -3 1008 l 149 924 l 303 1007 l 308 1001 z "},"–":{"ha":497,"x_min":8,"x_max":489,"o":"m 8 394 l 8 410 l 489 410 l 489 394 l 8 394 z "},"—":{"ha":1026,"x_min":8,"x_max":1017,"o":"m 8 394 l 8 410 l 1017 410 l 1017 394 l 8 394 z "},"‘":{"ha":146,"x_min":28,"x_max":117,"o":"m 93 1004 q 80 970 78 985 q 90 944 82 956 q 108 921 99 932 q 117 896 117 910 q 103 859 117 872 q 72 846 89 846 q 42 858 56 846 q 28 897 28 871 q 34 928 28 913 q 50 960 40 944 q 71 987 60 975 q 92 1006 82 999 l 93 1004 z "},"’":{"ha":143,"x_min":26,"x_max":115,"o":"m 26 957 q 40 993 26 981 q 71 1006 54 1006 q 101 993 88 1006 q 115 954 115 981 q 109 924 115 940 q 93 892 103 907 q 72 866 83 878 q 51 847 61 854 l 50 849 q 64 882 65 868 q 54 908 63 896 q 36 931 46 919 q 26 957 26 943 z "},"‚":{"ha":143,"x_min":26,"x_max":115,"o":"m 26 60 q 40 96 26 83 q 71 108 54 108 q 101 96 88 108 q 115 57 115 83 q 109 26 115 43 q 93 -5 103 10 q 72 -31 83 -19 q 51 -50 61 -43 l 50 -49 q 64 -15 65 -29 q 54 10 63 -1 q 36 34 46 22 q 26 60 26 46 z "},"“":{"ha":240,"x_min":28,"x_max":211,"o":"m 93 1004 q 80 970 78 985 q 90 944 82 956 q 108 921 99 932 q 117 896 117 910 q 103 859 117 872 q 72 846 89 846 q 42 858 56 846 q 28 897 28 871 q 34 928 28 913 q 50 960 40 944 q 71 987 60 975 q 92 1006 82 999 l 93 1004 m 188 1004 q 174 970 172 985 q 185 944 176 956 q 202 921 193 932 q 211 896 211 910 q 197 859 211 872 q 167 846 183 846 q 136 858 150 846 q 122 897 122 871 q 128 928 122 913 q 144 960 135 944 q 165 987 154 975 q 186 1006 176 999 l 188 1004 z "},"”":{"ha":238,"x_min":26,"x_max":210,"o":"m 121 957 q 135 993 121 981 q 165 1006 149 1006 q 196 993 182 1006 q 210 954 210 981 q 203 924 210 940 q 188 892 197 907 q 167 866 178 878 q 146 847 156 854 l 144 849 q 158 882 160 868 q 147 908 156 896 q 130 931 139 919 q 121 957 121 943 m 26 957 q 40 993 26 981 q 71 1006 54 1006 q 101 993 88 1006 q 115 954 115 981 q 109 924 115 940 q 93 892 103 907 q 72 866 83 878 q 51 847 61 854 l 50 849 q 64 882 65 868 q 54 908 63 896 q 36 931 46 919 q 26 957 26 943 z "},"„":{"ha":238,"x_min":26,"x_max":210,"o":"m 121 60 q 135 96 121 83 q 165 108 149 108 q 196 96 182 108 q 210 57 210 83 q 203 26 210 43 q 188 -5 197 10 q 167 -31 178 -19 q 146 -50 156 -43 l 144 -49 q 158 -15 160 -29 q 147 10 156 -1 q 130 34 139 22 q 121 60 121 46 m 26 60 q 40 96 26 83 q 71 108 54 108 q 101 96 88 108 q 115 57 115 83 q 109 26 115 43 q 93 -5 103 10 q 72 -31 83 -19 q 51 -50 61 -43 l 50 -49 q 64 -15 65 -29 q 54 10 63 -1 q 36 34 46 22 q 26 60 26 46 z "},"•":{"ha":283,"x_min":36,"x_max":247,"o":"m 142 528 q 217 497 186 528 q 247 422 247 467 q 217 347 247 378 q 142 317 186 317 q 67 347 97 317 q 36 422 36 378 q 67 497 36 467 q 142 528 97 528 z "},"…":{"ha":544,"x_min":26,"x_max":517,"o":"m 88 108 q 131 90 114 108 q 149 46 149 72 q 131 3 149 21 q 88 -15 114 -15 q 44 3 63 -15 q 26 46 26 21 q 44 90 26 72 q 88 108 63 108 m 272 108 q 315 90 297 108 q 333 46 333 72 q 315 3 333 21 q 272 -15 297 -15 q 228 3 246 -15 q 210 46 210 21 q 228 90 210 72 q 272 108 246 108 m 456 108 q 499 90 481 108 q 517 46 517 72 q 499 3 517 21 q 456 -15 481 -15 q 413 3 431 -15 q 394 46 394 21 q 413 90 394 72 q 456 108 431 108 z "},"‰":{"ha":1132,"x_min":38,"x_max":1093,"o":"m 718 1067 l 728 1067 l 47 -97 l 38 -97 l 718 1067 m 224 613 q 126 640 165 613 q 67 710 86 668 q 47 802 47 753 q 67 894 47 851 q 126 964 86 936 q 224 992 165 992 q 321 964 282 992 q 379 894 360 936 q 399 802 399 851 q 379 710 399 753 q 321 640 360 668 q 224 613 282 613 m 174 976 q 118 934 136 967 q 99 859 100 901 q 110 772 97 817 q 146 691 122 726 q 202 637 169 656 q 272 628 235 618 q 328 670 310 638 q 347 745 346 703 q 336 833 349 788 q 300 913 324 878 q 244 967 276 949 q 174 976 211 986 m 542 358 q 640 330 600 358 q 699 260 679 301 q 718 168 718 218 q 699 76 718 118 q 640 6 679 35 q 542 -22 600 -22 q 444 6 483 -22 q 386 76 406 35 q 367 168 367 118 q 386 260 367 218 q 444 330 406 301 q 542 358 483 358 m 918 358 q 1015 330 976 358 q 1074 260 1054 301 q 1093 168 1093 218 q 1074 76 1093 118 q 1015 6 1054 35 q 918 -22 976 -22 q 820 6 860 -22 q 761 76 781 35 q 742 168 742 118 q 761 260 742 218 q 820 330 781 301 q 918 358 860 358 m 592 -7 q 647 37 629 4 q 667 111 665 69 q 656 199 668 153 q 619 279 643 244 q 563 333 596 314 q 493 342 531 353 q 437 299 456 332 q 417 224 418 267 q 428 137 415 182 q 464 56 440 92 q 521 2 488 21 q 592 -7 554 -17 m 967 -7 q 1024 37 1006 4 q 1043 111 1042 69 q 1032 199 1044 153 q 996 279 1019 244 q 939 333 972 314 q 868 342 906 353 q 813 299 831 332 q 793 224 794 267 q 804 137 792 182 q 840 56 817 92 q 897 2 864 21 q 967 -7 929 -17 z "},"‹":{"ha":200,"x_min":36,"x_max":163,"o":"m 139 565 l 163 565 l 100 422 l 163 279 l 139 279 l 36 422 l 139 565 z "},"›":{"ha":200,"x_min":36,"x_max":163,"o":"m 163 422 l 61 279 l 36 279 l 99 422 l 36 565 l 61 565 l 163 422 z "},"€":{"ha":1035,"x_min":36,"x_max":993,"o":"m 993 357 q 935 194 976 264 q 837 78 893 125 q 713 9 781 32 q 576 -14 646 -14 q 429 13 501 -14 q 299 94 357 40 q 201 228 240 147 q 151 415 161 308 l 36 415 l 36 429 l 150 429 q 149 452 149 440 q 149 475 149 464 q 151 543 149 511 q 160 604 153 575 l 36 604 l 36 618 l 163 618 q 226 783 182 714 q 333 897 271 853 q 469 963 394 942 q 622 985 543 985 q 772 967 697 985 q 917 915 846 949 l 896 874 q 744 939 821 918 q 593 960 667 960 q 453 938 519 960 q 335 874 386 917 q 251 767 283 831 q 210 618 218 703 l 629 618 l 629 604 l 208 604 q 207 585 207 594 q 207 567 207 576 q 210 495 207 529 q 218 429 213 461 l 629 429 l 629 415 l 221 415 q 280 255 240 322 q 373 143 319 188 q 490 77 426 99 q 617 56 553 56 q 740 76 679 56 q 850 134 800 96 q 937 229 900 172 q 989 358 974 286 l 993 357 z "},"™":{"ha":567,"x_min":28,"x_max":522,"o":"m 522 969 l 522 694 l 483 694 l 483 931 l 399 708 l 397 708 l 392 694 l 381 694 l 274 933 l 274 694 l 263 694 l 263 969 l 296 969 l 400 743 l 486 969 l 522 969 m 28 969 l 239 969 l 239 963 l 151 963 l 151 694 l 115 694 l 115 963 l 28 963 l 28 969 z "},"'":{"ha":143,"x_min":26,"x_max":115,"o":"m 26 957 q 40 993 26 981 q 71 1006 54 1006 q 101 993 88 1006 q 115 954 115 981 q 109 924 115 940 q 93 892 103 907 q 72 866 83 878 q 51 847 61 854 l 50 849 q 64 882 65 868 q 54 908 63 896 q 36 931 46 919 q 26 957 26 943 z "},"\"":{"ha":238,"x_min":26,"x_max":210,"o":"m 121 957 q 135 993 121 981 q 165 1006 149 1006 q 196 993 182 1006 q 210 954 210 981 q 203 924 210 940 q 188 892 197 907 q 167 866 178 878 q 146 847 156 854 l 144 849 q 158 882 160 868 q 147 908 156 896 q 130 931 139 919 q 121 957 121 943 m 26 957 q 40 993 26 981 q 71 1006 54 1006 q 101 993 88 1006 q 115 954 115 981 q 109 924 115 940 q 93 892 103 907 q 72 866 83 878 q 51 847 61 854 l 50 849 q 64 882 65 868 q 54 908 63 896 q 36 931 46 919 q 26 957 26 943 z "}}}
